<svg width="32" height="32" fill="none" xmlns="http://www.w3.org/2000/svg"><path d="M14.599 27.978l.726.398 6.54-9.354h5.917c1.765 0 3.218-1.393 3.218-3.085s-1.453-3.085-3.218-3.085h-5.917l-6.54-9.354C15.118 3.199 14.702 3 14.287 3c-.311 0-.623.1-.83.398-.934.896-1.35 1.99-1.35 3.185 0 .497.104 1.094.312 1.592l1.868 4.776H5.88l.104.797.726-.398-2.906-4.28a1.101 1.101 0 00-.934-.497.91.91 0 00-.727.398l-.52.398c-.414.398-.622.995-.622 1.493 0 .199 0 .497.104.696l.726-.298-.726.199 1.453 4.578-1.453 4.378.83.2-.726-.3C1 20.715 1 20.914 1 21.212c0 .498.208.995.623 1.394l.519.497c.207.2.519.299.727.299.31 0 .726-.2.934-.498l2.906-4.18-.726-.398-.104.797h8.305l-1.87 4.776a4.344 4.344 0 00-.31 1.593c0 1.194.519 2.288 1.349 3.184.208.199.519.398.83.299.416 0 .83-.2 1.039-.498l-.623-.498-.727-.398.311.2v-.399c-.103 0-.311.1-.311.2l.311.198v-.398.398l.312-.298c-.104-.1-.208-.1-.312-.1v.398l.312-.298c-.623-.597-.83-1.294-.83-2.09 0-.299.103-.697.207-.995l2.387-5.872a.594.594 0 00-.103-.696.962.962 0 00-.727-.299H6.19c-.311 0-.623.1-.83.299l-2.907 4.18.52.298v-.597c-.208 0-.416.1-.52.199l.52.298v-.597.597l.415-.398c-.208.1-.312 0-.52 0v.598l.416-.398-.52-.498c-.103-.1-.103-.2-.103-.299v-.199l1.557-4.677v-.498l-1.557-4.776V10.762c0-.1 0-.199.104-.298l.519-.498-.415-.298v.597c.103 0 .31-.1.415-.2l-.415-.397v.597-.597l-.416.298c.104.2.312.2.52.2v-.498l-.52.298 2.907 4.18c.207.298.519.398.83.298h9.343c.311 0 .519-.1.726-.298a.594.594 0 00.104-.697l-2.387-5.871c-.104-.299-.208-.697-.208-.995 0-.797.312-1.493.83-2.09l-.31-.299v.398c.103 0 .207 0 .31-.1l-.31-.298v.398-.398l-.312.2c.104.099.207.198.311.198v-.398l-.311.2 6.747 9.652c.104.2.415.398.727.398h6.332c.83 0 1.557.697 1.557 1.493 0 .796-.726 1.493-1.557 1.493H21.45c-.312 0-.52.1-.727.398l-6.747 9.653.623.497z" fill="#32383C"/></svg>