<svg width="32" height="32" xmlns="http://www.w3.org/2000/svg" xmlns:xlink="http://www.w3.org/1999/xlink"><defs><path d="M16.167 25.367a9.2 9.2 0 1 0 0-18.4 9.2 9.2 0 0 0 0 18.4zm0 2.3c-6.352 0-11.5-5.15-11.5-11.5 0-6.352 5.148-11.5 11.5-11.5 6.35 0 11.5 5.148 11.5 11.5 0 6.35-5.15 11.5-11.5 11.5zm0-13.8c.635 0 1.15.515 1.15 1.15v5.75a1.15 1.15 0 0 1-2.3 0v-5.75c0-.635.515-1.15 1.15-1.15zm0-1.15a1.15 1.15 0 1 1 0-2.3 1.15 1.15 0 0 1 0 2.3z" id="a"/></defs><g fill="none" fill-rule="evenodd"><mask id="b" fill="#fff"><use xlink:href="#a"/></mask><g mask="url(#b)" fill="#C5C5C5" fill-rule="nonzero"><path d="M0 0h32v32H0z"/></g></g></svg>