<svg width="32" height="32" xmlns="http://www.w3.org/2000/svg" xmlns:xlink="http://www.w3.org/1999/xlink"><defs><path d="M16.5 25.7a9.2 9.2 0 100-18.4 9.2 9.2 0 000 18.4zm0 2.3C10.149 28 5 22.851 5 16.5S10.149 5 16.5 5 28 10.149 28 16.5 22.851 28 16.5 28zm0-13.8c.635 0 1.15.515 1.15 1.15v5.75a1.15 1.15 0 11-2.3 0v-5.75c0-.635.515-1.15 1.15-1.15zm0-1.15a1.15 1.15 0 110-2.3 1.15 1.15 0 010 2.3z" id="a"/></defs><use fill="#C5C5C5" fill-rule="nonzero" transform="rotate(-180 16.5 16.5)" xlink:href="#a"/></svg>