<svg width="32" height="32" xmlns="http://www.w3.org/2000/svg" xmlns:xlink="http://www.w3.org/1999/xlink"><defs><path d="M15.85 24.019l3.21-3.419h8.64a1 1 0 0 0 1-1V8a1 1 0 0 0-1-1H4a1 1 0 0 0-1 1v11.6a1 1 0 0 0 1 1h8.64l3.21 3.419zm4.076-1.419l-2.618 2.788a2 2 0 0 1-2.916 0L11.774 22.6H4a3 3 0 0 1-3-3V8a3 3 0 0 1 3-3h23.7a3 3 0 0 1 3 3v11.6a3 3 0 0 1-3 3h-7.774zM21 16a1.5 1.5 0 1 1 0-3 1.5 1.5 0 0 1 0 3zm-5 0a1.5 1.5 0 1 1 0-3 1.5 1.5 0 0 1 0 3zm-5 0a1.5 1.5 0 1 1 0-3 1.5 1.5 0 0 1 0 3z" id="a"/></defs><use fill="#32383C" fill-rule="nonzero" xlink:href="#a"/></svg>