<svg width="32" height="32" xmlns="http://www.w3.org/2000/svg" xmlns:xlink="http://www.w3.org/1999/xlink"><defs><path d="M15.002 26.5v-7.63c0-.48.448-.87 1-.87s1 .39 1 .87v7.63H23.5v-7.63c0-.48.448-.87 1-.87s1 .39 1 .87v7.63h1.574a1 1 0 110 2H4.502a1 1 0 010-2H6.5v-7.63c0-.48.448-.87 1-.87s1 .39 1 .87v7.63h6.502zm.36-22.268a1 1 0 011.28 0l12 10c.719.599.295 1.768-.64 1.768h-24c-.935 0-1.359-1.17-.64-1.768l12-10zM6.764 14H25.24l-9.238-7.698L6.764 14zm9.238-1a2 2 0 110-4 2 2 0 010 4z" id="a"/></defs><g fill="none" fill-rule="evenodd"><mask id="b" fill="#fff"><use xlink:href="#a"/></mask><use fill="#979797" fill-rule="nonzero" xlink:href="#a"/><g mask="url(#b)" fill="#32383C" fill-rule="nonzero"><path d="M0 0h32v32H0z"/></g></g></svg>