<svg width="32" height="32" xmlns="http://www.w3.org/2000/svg" xmlns:xlink="http://www.w3.org/1999/xlink"><defs><path d="M15.126 12.116V10.26c-1.16-.579-1.775-1.93-1.482-3.254.059-.264.137-.542.233-.834a14.4 14.4 0 01.438-1.147 20.227 20.227 0 01.76-1.58c.376-.682 1.39-.553 1.582.202.237.933.735 1.967 1.352 2.963.857 1.38.206 3.13-1.17 3.687v1.82a2.156 2.156 0 011.647 2.097v1.765h5.632a4.086 4.086 0 014.079 4.093v5.182h.946c.473 0 .857.385.857.86C30 28.31 27.88 30 25.35 30H6.65C4.12 30 2 28.31 2 26.114c0-.475.384-.86.857-.86h.912v-3.126-2.056a4.086 4.086 0 014.079-4.093h5.632v-1.765c0-1.018.702-1.87 1.646-2.098zm.985-3.388c.482-.133.737-.736.443-1.208-.298-.481-.572-.97-.81-1.461-.09.225-.17.444-.24.654-.079.24-.141.463-.187.667-.125.566.131 1.123.58 1.343a.864.864 0 01.214.005zM17.63 17.7H7.848a2.369 2.369 0 00-2.365 2.373v1.399l.133.032c1.33.31 2.743.312 4.041-.188.299-.115.587-.255.864-.423a2.707 2.707 0 013.207.282c1.182 1.056 2.759 1.716 4.793 1.698a.978.978 0 00.79-.437c.815-1.197 1.818-2.23 3.018-2.871 1.267-.677 2.62-.826 3.993-.353a2.366 2.366 0 00-2.204-1.512H17.63zm8.852 3.467c-2.204-1.247-4.142-.132-5.756 2.24a2.69 2.69 0 01-2.19 1.187c-2.484.022-4.462-.808-5.947-2.134a.998.998 0 00-1.18-.095 7.105 7.105 0 01-1.138.558c-1.577.607-3.228.637-4.788.313v2.019h21v-4.088zM4.62 26.974h-.658c.449.751 1.464 1.305 2.688 1.305h18.7c1.224 0 2.24-.554 2.688-1.305H4.62zm12.151-12.76a.435.435 0 00-.434-.437h-.708a.435.435 0 00-.435.437v1.765h1.577v-1.765z" id="a"/></defs><use fill="#32383C" fill-rule="nonzero" xlink:href="#a"/></svg>