<svg width="32" height="32" xmlns="http://www.w3.org/2000/svg" xmlns:xlink="http://www.w3.org/1999/xlink"><defs><path d="M20 7h-8v2a1 1 0 01-2 0V7H7a1 1 0 00-1 1v4.111h20V8a1 1 0 00-1-1h-3v2a1 1 0 01-2 0V7zm1 0v2-2zm1-1v1h1V5h2a3 3 0 013 3v18a3 3 0 01-3 3H7a3 3 0 01-3-3V8a3 3 0 013-3h2v2h1V4a1 1 0 012 0v3h1V5h6v2h1V4a1 1 0 012 0v2zm-1-1V4v1zM11 7v2-2zm0-2V4v1zm15 9.111H6V26a1 1 0 001 1h18a1 1 0 001-1V14.111zm-6.537 4.152a.667.667 0 01.993.891l-4.468 4.983a.667.667 0 01-.969.026l-2.64-2.64a.667.667 0 01.944-.943l2.142 2.141 3.998-4.458z" id="a"/></defs><g fill="none" fill-rule="evenodd"><mask id="b" fill="#fff"><use xlink:href="#a"/></mask><use fill="#32383C" fill-rule="nonzero" xlink:href="#a"/><g mask="url(#b)" fill="#32383C" fill-rule="nonzero"><path d="M0 0h32v32H0z"/></g></g></svg>