<svg width="32" height="32" xmlns="http://www.w3.org/2000/svg" xmlns:xlink="http://www.w3.org/1999/xlink"><defs><path d="M16 4H8v2a1 1 0 1 1-2 0V4H3a1 1 0 0 0-1 1v4.111h20V5a1 1 0 0 0-1-1h-3v2a1 1 0 0 1-2 0V4zm1 0v2-2zm1-2v2h1V2h2a3 3 0 0 1 3 3v18a3 3 0 0 1-3 3H3a3 3 0 0 1-3-3V5a3 3 0 0 1 3-3h2v2h1V1a1 1 0 1 1 2 0v3h1V2h6v2h1V1a1 1 0 0 1 2 0v1zm-1 0V1v1zM7 4v2-2zm0-2V1v1zm15 9.111H2V23a1 1 0 0 0 1 1h18a1 1 0 0 0 1-1V11.111zM7 17a1 1 0 1 1 0-2 1 1 0 0 1 0 2zm0 4a1 1 0 1 1 0-2 1 1 0 0 1 0 2zm5-4a1 1 0 1 1 0-2 1 1 0 0 1 0 2zm0 4a1 1 0 1 1 0-2 1 1 0 0 1 0 2zm5-4a1 1 0 1 1 0-2 1 1 0 0 1 0 2zm0 4a1 1 0 1 1 0-2 1 1 0 0 1 0 2z" id="a"/></defs><g transform="translate(4 3)" fill="none" fill-rule="evenodd"><mask id="b" fill="#fff"><use xlink:href="#a"/></mask><use fill="#32383C" fill-rule="nonzero" xlink:href="#a"/><g mask="url(#b)" fill="#32383C"><path d="M-4-3h32v32H-4z"/></g></g></svg>