<svg width="24" height="21" fill="none" xmlns="http://www.w3.org/2000/svg"><g fill-rule="evenodd" clip-rule="evenodd" fill="#32383C"><path d="M2.182 11.055v4.422h19.636v-4.422H2.182zM1.09 8.844C.488 8.844 0 9.339 0 9.949v6.633c0 .61.488 1.106 1.09 1.106h21.82c.602 0 1.09-.495 1.09-1.106V9.95c0-.61-.488-1.105-1.09-1.105H1.09z"/><path d="M4.37 17.733l-.004 1.048 1.097.004.004-1.048-1.097-.004zm-1.083-2.215a1.098 1.098 0 00-1.095 1.101l-.012 3.259a1.098 1.098 0 001.087 1.11L6.545 21a1.098 1.098 0 001.096-1.101l.012-3.259a1.098 1.098 0 00-1.087-1.11l-3.279-.012zM18.551 17.733l-.003 1.048 1.097.004.003-1.048-1.097-.004zm-1.082-2.215a1.098 1.098 0 00-1.095 1.101l-.012 3.259a1.098 1.098 0 001.086 1.11l3.28.012a1.098 1.098 0 001.094-1.101l.012-3.259a1.098 1.098 0 00-1.086-1.11l-3.28-.012zM18.753 2.211H5.247l-.654 6.633h14.814l-.654-6.633zM5.247 0c-1.12 0-2.06.86-2.17 1.991l-.655 6.633c-.129 1.301.88 2.43 2.17 2.43h14.815c1.291 0 2.3-1.129 2.171-2.43l-.654-6.633A2.193 2.193 0 0018.753 0H5.247zM6.545 14.371c.603 0 1.091-.495 1.091-1.105s-.488-1.106-1.09-1.106c-.603 0-1.091.495-1.091 1.106 0 .61.488 1.105 1.09 1.105zM17.454 14.371c.603 0 1.091-.495 1.091-1.105s-.488-1.106-1.09-1.106c-.603 0-1.091.495-1.091 1.106 0 .61.488 1.105 1.09 1.105z"/></g></svg>