<svg width="24" height="21" fill="none" xmlns="http://www.w3.org/2000/svg"><path fill-rule="evenodd" clip-rule="evenodd" d="M18.765 1.5H5.375a.5.5 0 00-.495.422L3.757 9H20.27l-1.01-7.07a.5.5 0 00-.496-.43zm1.98.217A2 2 0 0018.765 0H5.375a2 2 0 00-1.976 1.686L2 10.5h20l-1.255-8.783z" fill="#32383C"/><path fill-rule="evenodd" clip-rule="evenodd" d="M1.5 10.5v5h21v-5h-21zM1 9a1 1 0 00-1 1v6a1 1 0 001 1h22a1 1 0 001-1v-6a1 1 0 00-1-1H1z" fill="#32383C"/><path fill-rule="evenodd" clip-rule="evenodd" d="M5.5 17.5h-2v2h2v-2zM2 16v4a1 1 0 001 1h3a1 1 0 001-1v-4H2zM20.5 17.5h-2v2h2v-2zM17 16v4a1 1 0 001 1h3a1 1 0 001-1v-4h-5z" fill="#32383C"/><path d="M7 13a1 1 0 11-2 0 1 1 0 012 0zM18 13a1 1 0 11-2 0 1 1 0 012 0z" fill="#32383C"/></svg>