<svg width="32" height="32" xmlns="http://www.w3.org/2000/svg" xmlns:xlink="http://www.w3.org/1999/xlink"><defs><path d="M19.309 15.088a1 1 0 01-1.433.193l-4.203-3.362-5.879 7.688a1 1 0 11-1.588-1.214l6.5-8.5a1 1 0 011.42-.173l4.181 3.345 7.384-10.153a1 1 0 011.618 1.176l-8 11zM14 0a1 1 0 010 2C7.373 2 2 7.373 2 14s5.373 12 12 12 12-5.373 12-12a1 1 0 012 0c0 7.732-6.268 14-14 14S0 21.732 0 14 6.268 0 14 0z" id="a"/></defs><g transform="translate(2 2)" fill="none" fill-rule="evenodd"><mask id="b" fill="#fff"><use xlink:href="#a"/></mask><use fill="#C5C5C5" fill-rule="nonzero" xlink:href="#a"/><g mask="url(#b)" fill="#32383C" fill-rule="nonzero"><path d="M-2-2h32v32H-2z"/></g></g></svg>