<svg width="32" height="32" xmlns="http://www.w3.org/2000/svg" xmlns:xlink="http://www.w3.org/1999/xlink"><defs><path d="M18.023 20.988a1.123 1.123 0 0 1-.88-.244l-4.92-4.018-7.112 9.788a1.138 1.138 0 0 1-1.65.231 1.282 1.282 0 0 1-.219-1.735l7.647-10.524a1.15 1.15 0 0 1 1.095-.475c.3-.043.617.036.873.245l5 4.083 8.972-11.864c.39-.515 1.14-.629 1.677-.254.536.375.654 1.096.264 1.612l-9.6 12.692c-.271.36-.719.523-1.147.463z" id="a"/></defs><g fill="none" fill-rule="evenodd"><mask id="b" fill="#fff"><use xlink:href="#a"/></mask><use fill="#C5C5C5" fill-rule="nonzero" xlink:href="#a"/><g mask="url(#b)" fill="#32383C"><path d="M0 0h32v32H0z"/></g></g></svg>