<svg width="32" height="32" xmlns="http://www.w3.org/2000/svg" xmlns:xlink="http://www.w3.org/1999/xlink"><defs><path d="M12 0c7.732 0 14 6.268 14 14s-6.268 14-14 14a1 1 0 0 1 0-2c6.627 0 12-5.373 12-12S18.627 2 12 2a1 1 0 0 1 0-2zM1.679 16.177c0 1.002.848 1.818 1.89 1.819h4.427c.207 0 .397.116.484.296l.828 1.714a.37.37 0 0 0 .657-.004l.791-1.703a.535.535 0 0 1 .487-.304h4.333c1.041 0 1.89-.815 1.89-1.818v-4.68c0-1.003-.849-1.818-1.89-1.818H3.569c-1.042 0-1.89.815-1.89 1.817v4.681zm9.119 5.36a1.203 1.203 0 0 1-2.202.015l-.873-1.945h-4.81C1.3 19.607 0 18.26 0 16.618v-5.63C0 9.346 1.3 8 2.914 8H16.33c1.613 0 2.913 1.346 2.913 2.988v5.63c0 1.643-1.3 2.989-2.913 2.989h-4.7l-.833 1.93z" id="a"/></defs><g transform="translate(3 2)" fill="none" fill-rule="evenodd"><mask id="b" fill="#fff"><use xlink:href="#a"/></mask><use fill="#88E967" fill-rule="nonzero" xlink:href="#a"/><g mask="url(#b)" fill="#32383C"><path d="M-3.308-2.23h34v34h-34z"/></g></g></svg>