<svg width="32" height="32" xmlns="http://www.w3.org/2000/svg" xmlns:xlink="http://www.w3.org/1999/xlink"><defs><path d="M29 16.5C29 23.404 23.404 29 16.5 29S4 23.404 4 16.5 9.596 4 16.5 4 29 9.596 29 16.5zm-1.852 0c0-5.88-4.767-10.648-10.648-10.648-5.88 0-10.648 4.767-10.648 10.648 0 5.88 4.767 10.648 10.648 10.648 5.88 0 10.648-4.767 10.648-10.648zm-5.29-1.527l-4.444 2.734a.89.89 0 0 1-.69.104.89.89 0 0 1-.692-.104l-4.89-3.009v5.373h10.715v-5.098zm-.086-2.044H11.675l5.048 3.106 5.049-3.106zm1.87.43V20.071c0 .987-.799 1.786-1.785 1.786H11.143c-.986 0-1.786-.8-1.786-1.786V12.93c0-.987.8-1.786 1.786-1.786h10.714c.986 0 1.786.8 1.786 1.786v.43z" id="a"/></defs><g fill="none" fill-rule="evenodd"><mask id="b" fill="#fff"><use xlink:href="#a"/></mask><use fill="#32383C" fill-rule="nonzero" xlink:href="#a"/><g mask="url(#b)" fill="#32383C"><path d="M0 0h32v32H0z"/></g></g></svg>