<svg width="32" height="32" xmlns="http://www.w3.org/2000/svg"><path d="M15.302 15.302v-5.214a.77.77 0 011.538 0v5.214h5.214a.77.77 0 010 1.538H16.84v5.214a.77.77 0 01-1.538 0V16.84h-5.214a.77.77 0 010-1.538h5.214zm9.537-8.14c4.881 4.88 4.881 12.795 0 17.677-4.882 4.881-12.796 4.881-17.678 0-4.881-4.882-4.881-12.796 0-17.678 4.882-4.881 12.796-4.881 17.678 0zm-1.414 1.413c-4.1-4.1-10.75-4.1-14.85 0s-4.1 10.75 0 14.85 10.75 4.1 14.85 0 4.1-10.75 0-14.85z" fill="#32383C" fill-rule="nonzero"/></svg>