<svg width="32" height="32" xmlns="http://www.w3.org/2000/svg" xmlns:xlink="http://www.w3.org/1999/xlink"><defs><path d="M17 15.586l3.207 3.207a1 1 0 0 1-1.414 1.414l-3.261-3.26a1 1 0 0 1-.532-.885V8.483a1 1 0 0 1 2 0v7.103zM16 3.5c6.904 0 12.5 5.596 12.5 12.5S22.904 28.5 16 28.5 3.5 22.904 3.5 16 9.096 3.5 16 3.5zm0 2C10.201 5.5 5.5 10.201 5.5 16S10.201 26.5 16 26.5 26.5 21.799 26.5 16 21.799 5.5 16 5.5z" id="a"/></defs><g fill="none" fill-rule="evenodd"><mask id="b" fill="#fff"><use xlink:href="#a"/></mask><use fill="#C5C5C5" fill-rule="nonzero" xlink:href="#a"/><g mask="url(#b)" fill="#32383C"><path d="M0 0h32v32H0z"/></g></g></svg>