<svg width="32" height="32" xmlns="http://www.w3.org/2000/svg" xmlns:xlink="http://www.w3.org/1999/xlink"><defs><path d="M16 27c6.075 0 11-4.925 11-11S22.075 5 16 5 5 9.925 5 16s4.925 11 11 11zm0 2C8.82 29 3 23.18 3 16S8.82 3 16 3s13 5.82 13 13-5.82 13-13 13zm2.23-17.531c-.247-.19-.62-.358-1.105-.472v3.963l.032.009c.784.219 1.592.49 2.315 1.01.41.298.786.687 1.057 1.172.311.554.472 1.217.47 1.943 0 .697-.15 1.346-.454 1.9a3.54 3.54 0 0 1-1.263 1.306c-.652.396-1.387.6-2.157.709v.86A1.14 1.14 0 0 1 15.975 25a1.14 1.14 0 0 1-1.15-1.13v-.828c-.958-.135-1.804-.48-2.463-1.03A3.745 3.745 0 0 1 11 19.092c0-.581.48-1.054 1.073-1.054.592 0 1.071.473 1.071 1.054.008.562.205.969.604 1.31.25.209.615.38 1.077.486V16.56c-.761-.201-1.539-.436-2.25-.89a3.47 3.47 0 0 1-1.079-1.074c-.328-.52-.499-1.16-.496-1.847 0-.663.177-1.385.604-2.055.423-.669 1.113-1.265 2.037-1.607.36-.135.758-.228 1.185-.287v-.67c0-.624.514-1.13 1.15-1.13.634 0 1.149.506 1.149 1.13v.715a5.98 5.98 0 0 1 1.647.486c.834.396 1.493 1.02 1.862 1.786.247.508.366 1.067.366 1.63 0 .584-.481 1.056-1.073 1.056a1.064 1.064 0 0 1-1.073-1.055c0-.281-.055-.516-.155-.72a1.555 1.555 0 0 0-.47-.56zm-.387 5.85A5.73 5.73 0 0 0 17 17v4a4.82 4.82 0 0 0 .685-.172c.572-.205.89-.453 1.087-.784.132-.226.226-.524.228-.969-.004-.542-.128-.851-.303-1.099-.176-.245-.444-.457-.854-.657zm-3.705-3.553c.246.086.543.162.862.234v-3c-.183.03-.355.063-.502.104a2.715 2.715 0 0 0-.899.413c-.423.311-.599.727-.599 1.068.007.374.117.557.274.718.162.16.435.316.864.463z" id="a"/></defs><use fill="#32383C" fill-rule="nonzero" xlink:href="#a"/></svg>