<svg width="32" height="32" xmlns="http://www.w3.org/2000/svg" xmlns:xlink="http://www.w3.org/1999/xlink"><defs><path d="M14.145 15.198a.996.996 0 0 1-.75-.288l-4.483-4.352-7.13 7.69a.991.991 0 0 1-1.476 0 1.19 1.19 0 0 1 0-1.593l7.825-8.44c.196-.213.453-.326.714-.334a1 1 0 0 1 .732.294l4.445 4.314L24.285.367A.992.992 0 0 1 25.76.294c.426.42.456 1.132.067 1.591L14.865 14.833a1.011 1.011 0 0 1-.72.365zm-.49 9.24L7.09 22.095l-4.104 2.28a1 1 0 1 1-.972-1.748l4.496-2.497a.998.998 0 0 1 .832-.069l6.676 2.385 10.679-3.398a1 1 0 0 1 .606 1.906l-10.99 3.497a.998.998 0 0 1-.658-.011z" id="a"/></defs><g transform="translate(3 4)" fill="none" fill-rule="evenodd"><mask id="b" fill="#fff"><use xlink:href="#a"/></mask><use fill="#32383C" fill-rule="nonzero" xlink:href="#a"/><g mask="url(#b)" fill="#32383C"><path d="M-3-4h32v32H-3z"/></g></g></svg>