<svg width="32" height="32" xmlns="http://www.w3.org/2000/svg" xmlns:xlink="http://www.w3.org/1999/xlink"><defs><path d="M16 10.646A5.36 5.36 0 0 1 21.354 16 5.36 5.36 0 0 1 16 21.354 5.36 5.36 0 0 1 10.646 16 5.36 5.36 0 0 1 16 10.646zm0 8.518A3.167 3.167 0 0 0 19.164 16 3.167 3.167 0 0 0 16 12.836 3.167 3.167 0 0 0 12.836 16 3.167 3.167 0 0 0 16 19.164zm11.656-8.002c.657 1.08.348 2.445-.72 3.173l-1.173.8a8.877 8.877 0 0 1 0 1.73l1.173.8c1.068.728 1.377 2.093.72 3.173l-1.413 2.324c-.657 1.08-2.057 1.509-3.255.995l-1.316-.564a9.915 9.915 0 0 1-1.58.866l-.143 1.363C19.82 27.064 18.728 28 17.413 28h-2.826c-1.315 0-2.405-.936-2.536-2.178l-.144-1.363a9.907 9.907 0 0 1-1.579-.866l-1.315.564c-1.2.513-2.599.085-3.256-.996l-1.413-2.323c-.657-1.08-.348-2.445.72-3.173l1.173-.8a8.877 8.877 0 0 1 0-1.73l-1.173-.8c-1.068-.728-1.377-2.093-.72-3.173l1.413-2.324c.657-1.08 2.057-1.509 3.255-.995l1.317.563a9.91 9.91 0 0 1 1.578-.865l.144-1.363C12.18 4.936 13.272 4 14.587 4h2.826c1.315 0 2.405.936 2.536 2.178l.144 1.363c.553.24 1.081.53 1.578.865l1.316-.563c1.2-.513 2.599-.085 3.255.996l1.414 2.323zm-1.995 1.49a.335.335 0 0 0 .103-.454l-1.413-2.323a.373.373 0 0 0-.465-.142l-1.71.732c-.49.21-1.062.146-1.491-.172a7.712 7.712 0 0 0-1.82-.998c-.504-.195-.849-.63-.903-1.14l-.187-1.77a.356.356 0 0 0-.362-.312h-2.826a.356.356 0 0 0-.363.311l-.186 1.77c-.054.51-.4.946-.901 1.14a7.72 7.72 0 0 0-1.822.999 1.512 1.512 0 0 1-1.494.17l-1.707-.73a.373.373 0 0 0-.465.142l-1.413 2.323a.333.333 0 0 0 .102.454l1.524 1.04c.438.3.664.802.59 1.31a6.9 6.9 0 0 0 0 1.997c.074.508-.151 1.01-.59 1.31l-1.524 1.04a.334.334 0 0 0-.102.453l1.413 2.324a.373.373 0 0 0 .465.142l1.71-.732a1.509 1.509 0 0 1 1.49.171 7.712 7.712 0 0 0 1.821.999c.503.194.849.63.902 1.14l.187 1.77a.356.356 0 0 0 .362.312h2.827a.356.356 0 0 0 .362-.311l.187-1.771c.054-.51.4-.946.9-1.14a7.72 7.72 0 0 0 1.822-.998c.429-.317 1-.383 1.492-.172l1.71.732c.17.073.37.012.464-.142l1.414-2.324a.333.333 0 0 0-.103-.453l-1.523-1.04a1.347 1.347 0 0 1-.59-1.311 6.891 6.891 0 0 0 0-1.996 1.347 1.347 0 0 1 .589-1.31l1.524-1.04z" id="a"/></defs><g fill="none" fill-rule="evenodd"><mask id="b" fill="#fff"><use xlink:href="#a"/></mask><use fill="#469D39" fill-rule="nonzero" xlink:href="#a"/><g mask="url(#b)" fill="#32383C"><path d="M0 0h32v32H0z"/></g></g></svg>