<svg width="32" height="32" xmlns="http://www.w3.org/2000/svg" xmlns:xlink="http://www.w3.org/1999/xlink"><defs><path d="M13 27.5h14.5V13H13v14.5zm-1.963 1.061a1 1 0 01-.037-.269V21.5H4.098a.996.996 0 01-.424-.094A1 1 0 013 20.46V4a1 1 0 011-1h16.528a1 1 0 01.953 1.304c.012.064.019.13.019.196V11h6.983a1 1 0 01.988 1.158c.019.076.029.157.029.24v16.029c0 .068-.007.135-.02.199a1 1 0 01-.992.874H12.035a1 1 0 01-.998-.939zM19.5 11V5H5v14.5h6V12a1 1 0 011-1h7.5z" id="a"/></defs><g fill="none" fill-rule="evenodd"><mask id="b" fill="#fff"><use xlink:href="#a"/></mask><use fill="#C5C5C5" fill-rule="nonzero" xlink:href="#a"/><g mask="url(#b)" fill="#32383C"><path d="M0 0h32v32H0z"/></g></g></svg>