<svg width="32" height="32" xmlns="http://www.w3.org/2000/svg" xmlns:xlink="http://www.w3.org/1999/xlink"><defs><path d="M22 18v-4H10v4a6 6 0 1012 0zm2-5h1a4 4 0 110 8h-1.582A8.003 8.003 0 018 18v-5a1 1 0 011-1h14a1 1 0 011 1zm0 2v4h1a2 2 0 100-4h-1zM7 27h18a1 1 0 010 2H7a1 1 0 010-2zm6.728-20.094c.063-.102.128-.205.19-.31.473-.804.353-1.162-.365-2.343-.245-.403-.093-.915.34-1.144.432-.228.982-.087 1.227.317.808 1.33 1.308 2.393.375 3.978-.068.116-.14.23-.21.345-.476.764-.715 1.147-.178 1.978.258.397.12.913-.305 1.152a.946.946 0 01-.464.121.916.916 0 01-.772-.406c-1.088-1.68-.366-2.84.162-3.688zm3.677.886c.032-.067.064-.135.094-.204.176-.396.177-.517-.184-1.31-.189-.411-.072-.934.262-1.167.333-.233.755-.087.943.325.36.787.768 1.68.193 2.976-.036.082-.073.162-.11.24-.24.51-.297.631-.093 1.048.198.406.093.932-.235 1.177a.595.595 0 01-.357.123c-.235 0-.464-.148-.594-.414-.627-1.286-.2-2.193.081-2.794z" id="a"/></defs><g fill="none" fill-rule="evenodd"><use fill="#32383C" fill-rule="nonzero" xlink:href="#a"/><path fill="none" d="M0 0h32v32H0z"/></g></svg>