<svg width="32" height="32" xmlns="http://www.w3.org/2000/svg" xmlns:xlink="http://www.w3.org/1999/xlink"><defs><path d="M12.128 24.11a.91.91 0 01-.301-.679V8c0-.504.408-.913.913-.913h12.708a.93.93 0 01.043 0c.505 0 .914.408.914.912l.016 7.985a.913.913 0 01-1.826.002l-.014-7.073H13.653v13.674h7.35a.913.913 0 010 1.826h-8.195a.91.91 0 01-.68-.304zM16 2a1 1 0 010 2C9.373 4 4 9.373 4 16s5.373 12 12 12 12-5.373 12-12a1 1 0 012 0c0 7.732-6.268 14-14 14S2 23.732 2 16 8.268 2 16 2zm5.626 9a.913.913 0 010 1.826h-4.713a.913.913 0 010-1.826h4.713zm-.683 4a.913.913 0 010 1.826h-4.03a.913.913 0 010-1.826h4.03z" id="a"/></defs><g fill="none" fill-rule="evenodd"><mask id="b" fill="#fff"><use xlink:href="#a"/></mask><use fill="#FFF" fill-rule="nonzero" xlink:href="#a"/><g mask="url(#b)" fill="#32383C"><path d="M0 0h32v32H0z"/></g></g></svg>