<svg width="32" height="32" xmlns="http://www.w3.org/2000/svg" xmlns:xlink="http://www.w3.org/1999/xlink"><defs><path d="M5 6.586L6.586 5H5v1.586zm0 2.828v2.172L9.414 16h13.172L27 11.586V9.414L22.586 5H9.414L5 9.414zm0 5V16h1.586L5 14.414zM25.414 16H27v-1.586L25.414 16zM27 6.586V5h-1.586L27 6.586zM5 3h22a2 2 0 0 1 2 2v11a2 2 0 0 1-2 2H5a2 2 0 0 1-2-2V5a2 2 0 0 1 2-2zm22 16.5a1 1 0 0 1 2 0v2a2 2 0 0 1-2 2H5a2 2 0 0 1-2-2v-2a1 1 0 0 1 2 0v2h22v-2zm0 5.5a1 1 0 0 1 2 0v2a2 2 0 0 1-2 2H5a2 2 0 0 1-2-2v-2a1 1 0 0 1 2 0v2h22v-2zM16 13.5a3 3 0 1 1 0-6 3 3 0 0 1 0 6zm-.26-1.436v.135c0 .166.123.301.274.301.15 0 .273-.135.273-.3v-.135c.439-.098.724-.433.713-.873 0-.617-.534-.797-.918-.933-.397-.135-.534-.21-.534-.36 0-.226.274-.301.452-.301.26 0 .48.15.48.15.122.105.3.06.383-.075a.313.313 0 0 0-.069-.421 1.413 1.413 0 0 0-.508-.224.33.33 0 0 0 .001-.032v-.195c0-.166-.123-.301-.273-.301-.151 0-.274.135-.274.3v.223c-.438.095-.74.432-.74.875 0 .617.534.797.918.933.397.135.534.21.534.36 0 .226-.274.301-.452.301a.76.76 0 0 1-.534-.21.249.249 0 0 0-.384 0 .31.31 0 0 0 0 .421c.034.037.27.277.658.361z" id="a"/></defs><g fill="none" fill-rule="evenodd"><mask id="b" fill="#fff"><use xlink:href="#a"/></mask><use fill="#979797" fill-rule="nonzero" xlink:href="#a"/><g mask="url(#b)" fill="#32383C" fill-rule="nonzero"><path d="M-1 0h32v32H-1z"/></g></g></svg>