<svg width="32" height="32" xmlns="http://www.w3.org/2000/svg" xmlns:xlink="http://www.w3.org/1999/xlink"><defs><path d="M26 27v-6a1 1 0 012 0v7a1 1 0 01-1 1H5a1 1 0 01-1-1v-7a1 1 0 012 0v6h20zm-9-7.565l3.192-3.192a1 1 0 111.415 1.414l-4.95 4.95a1 1 0 01-1.414 0l-4.95-4.95a1 1 0 111.414-1.414L15 19.536V7a1 1 0 012 0v12.435z" id="a"/></defs><g fill="none" fill-rule="evenodd"><mask id="b" fill="#fff"><use xlink:href="#a"/></mask><use fill="#C5C5C5" xlink:href="#a"/><g mask="url(#b)" fill="#32383C"><path d="M0 0h32v32H0z"/></g></g></svg>