<svg width="32" height="32" fill="none" xmlns="http://www.w3.org/2000/svg"><path d="M16 16.667l.21-.97L5.58 11.818 16 7.94l10.421 3.88-10.631 3.878.21.97.21-.97-.21.97.21.97 13.158-4.85c.316-.12.632-.484.632-.969 0-.364-.21-.848-.632-.97L16.211 6h-.421L2.632 10.848c-.421.122-.632.606-.632.97s.21.849.632.97l13.158 4.848c.21.122.315.122.526 0l-.316-.97z" fill="#32383C"/><path d="M23.053 14.364v7.151h.842l-.737-.364.421.243-.421-.242.421.242-.421-.242s-.105.242-.316.484c-.631.849-2.316 2.667-6.526 2.667-2.842 0-4.737-.849-5.895-1.697-.631-.364-.947-.849-1.263-1.09l-.316-.364-.105-.122-.21.243.315-.243-.21.243.315-.243-.736.485h.842v-7.394c0-.485-.421-.97-.842-.97-.527 0-.948.485-.948.97v7.394c0 .242 0 .364.105.485 0 .121.632 1.09 2.106 2.06 1.368.97 3.684 1.94 6.842 1.94 3.158 0 5.263-.97 6.526-1.94s1.79-2.06 1.79-2.181c.105-.122.105-.243.105-.364v-7.151c0-.485-.421-.97-.842-.97s-.842.485-.842.97z" fill="#32383C"/></svg>