<svg width="32" height="32" xmlns="http://www.w3.org/2000/svg" xmlns:xlink="http://www.w3.org/1999/xlink"><defs><path d="M16.5 14.306c2.153 0 3.898 1.676 3.898 3.744 0 2.067-1.745 3.744-3.898 3.744-2.152 0-3.898-1.677-3.898-3.744 0-2.068 1.746-3.744 3.898-3.744zm0 1.872c-1.075 0-1.949.84-1.949 1.872s.874 1.872 1.95 1.872c1.074 0 1.948-.84 1.948-1.872 0-1.033-.874-1.872-1.949-1.872zM27.89 17.24a.918.918 0 0 1-.412 1.264.995.995 0 0 1-1.315-.396 5.944 5.944 0 0 0-.146-.245 15.068 15.068 0 0 0-2.38-2.89c-2.071-1.953-4.494-3.107-7.263-3.102-2.642.005-4.99 1.155-7.023 3.097a15.46 15.46 0 0 0-2.366 2.895 6.207 6.207 0 0 0-.147.248.995.995 0 0 1-1.317.391.918.918 0 0 1-.407-1.264c.132-.241.38-.64.74-1.147a17.335 17.335 0 0 1 2.123-2.45c2.367-2.261 5.172-3.636 8.393-3.642 3.34-.006 6.224 1.368 8.633 3.637.83.782 1.544 1.618 2.143 2.454.364.507.612.908.744 1.15z" id="a"/></defs><g fill="none" fill-rule="evenodd"><mask id="b" fill="#fff"><use xlink:href="#a"/></mask><use fill="#C5C5C5" xlink:href="#a"/><g mask="url(#b)" fill="#32383C"><path d="M0 0h32v32H0z"/></g></g></svg>