<svg width="32" height="32" xmlns="http://www.w3.org/2000/svg" xmlns:xlink="http://www.w3.org/1999/xlink"><defs><path d="M25.824 14.715c.555-.772.867-1.341.907-1.42a.883.883 0 00-1.564-.825c-.03.06-3.188 5.888-8.658 5.9-5.71 0-8.855-5.839-8.886-5.897a.886.886 0 00-1.568.822c.043.081.381.703.993 1.534l-1.756 1.58a.885.885 0 001.184 1.315l1.699-1.528c.623.674 1.391 1.37 2.288 1.99L9.455 20.45a.885.885 0 001.615.719l.924-2.076c1.066.518 2.282.878 3.633.993v2.344a.884.884 0 101.769 0v-2.348A9.842 9.842 0 0021 19.019l.944 2.122a.883.883 0 001.168.448.882.882 0 00.448-1.167l-1.04-2.337a14.23 14.23 0 002.191-1.99l1.811 1.63a.884.884 0 101.184-1.315l-1.883-1.695z" id="a"/></defs><g fill="none" fill-rule="evenodd"><mask id="b" fill="#fff"><use xlink:href="#a"/></mask><use fill="#C5C5C5" xlink:href="#a"/><g mask="url(#b)" fill="#32383C"><path d="M0 0h32v32H0z"/></g></g></svg>