<svg width="32" height="32" xmlns="http://www.w3.org/2000/svg" xmlns:xlink="http://www.w3.org/1999/xlink"><defs><path d="M11.34 14.41l2.166-7.017a1 1 0 0 1 1.297-.645c1.379.5 2.637.854 3.775 1.065 1.196.227 1.791.004 2.976-.886l.186-.14c1.59-1.191 2.738-1.548 4.632-.962a40.75 40.75 0 0 0 3.153.89 1 1 0 0 1 .746 1.203l-1.658 7.017a1 1 0 0 1-1.272.724 97.968 97.968 0 0 0-3.168-.919c-1.52-.377-2.12-.168-3.304.82l-.099.083c-1.556 1.297-2.696 1.691-4.74 1.134-.59-.147-1.61-.427-3.068-.842l-1.758 5.694-1.911-.59 2.04-6.61a1.02 1.02 0 0 1 .007-.02zm-.136 7.22c-.394 1.273-2.305.683-1.911-.59l2.047-6.63 2.166-7.017c.394-1.274 2.305-.684 1.911.59l-.304.987-1.561 5.054-2.348 7.605zm2.348-7.606c1.415.402 2.408.674 2.984.818 1.332.363 1.85.184 2.953-.736l.1-.082c1.627-1.358 2.832-1.78 5.09-1.218.842.231 1.585.442 2.232.633l1.186-5.02a47.38 47.38 0 0 1-2.327-.687c-1.16-.359-1.702-.19-2.83.655l-.185.139c-1.59 1.195-2.687 1.605-4.545 1.253a24.2 24.2 0 0 1-3.097-.809l-1.56 5.054zM16 2a1 1 0 0 1 0 2C9.373 4 4 9.373 4 16s5.373 12 12 12a12.004 12.004 0 0 0 11.619-8.987 1 1 0 1 1 1.936.5A14.003 14.003 0 0 1 16 30c-7.732.001-14-6.267-14-13.999S8.268 2 16 2z" id="a"/></defs><g fill="none" fill-rule="evenodd"><mask id="b" fill="#fff"><use xlink:href="#a"/></mask><use fill="#711B1B" fill-rule="nonzero" xlink:href="#a"/><g mask="url(#b)" fill="#32383C"><path d="M0 0h32v32H0z"/></g></g></svg>