<svg width="32" height="32" xmlns="http://www.w3.org/2000/svg"><path d="M13 9.674v-4.26A11.022 11.022 0 005.414 13h4.26A7.028 7.028 0 0113 9.674zm2-.603a7.06 7.06 0 012 0V5.045a11.14 11.14 0 00-2 0V9.07zm4 .603A7.028 7.028 0 0122.326 13h4.26A11.022 11.022 0 0019 5.414v4.26zM22.93 15a7.06 7.06 0 010 2h4.025a11.14 11.14 0 000-2H22.93zm-.604 4A7.028 7.028 0 0119 22.326v4.26A11.022 11.022 0 0026.586 19h-4.26zM17 22.93a7.06 7.06 0 01-2 0v4.025a11.14 11.14 0 002 0V22.93zm-4-.604A7.028 7.028 0 019.674 19h-4.26A11.022 11.022 0 0013 26.586v-4.26zM9.07 17a7.06 7.06 0 010-2H5.046a11.14 11.14 0 000 2H9.07zM14 9.29V7.5v1.79zm4 0V7.5v1.79zm-4 13.42v1.79-1.79zm4 0v1.79-1.79zM22.71 18h1.79-1.79zM9.29 18H7.5h1.79zm13.42-4h1.79-1.79zM9.29 14H7.5h1.79zM5.18 14H7.5 5.181zm21.638 0H24.5h2.319zM5.18 18H7.5 5.181zm21.638 0H24.5h2.319zM18 26.819V24.5v2.319zm-4 0V24.5v2.319zM18 5.18V7.5 5.181zm-4 0V7.5 5.181zM29 16c0 7.18-5.82 13-13 13S3 23.18 3 16 8.82 3 16 3s13 5.82 13 13zm-8 0a5 5 0 10-10 0 5 5 0 0010 0z" fill="#32383C" fill-rule="nonzero"/></svg>