<svg width="32" height="32" xmlns="http://www.w3.org/2000/svg" xmlns:xlink="http://www.w3.org/1999/xlink"><defs><path d="M7.333 29C6.045 29 5 27.978 5 26.717V15.62c-.603-.4-1-1.078-1-1.847v-2.546C4 9.997 5.016 9 6.27 9h2.333A3.689 3.689 0 018 7c0-2.21 1.924-4 4.297-4 1.698 0 2.928.892 3.704 2.353C16.775 3.893 18.005 3 19.703 3 22.076 3 24 4.79 24 7c0 .724-.222 1.409-.603 2h2.333c1.254 0 2.27.997 2.27 2.227v2.546c0 .768-.397 1.446-1 1.846v11.098C27 27.978 25.955 29 24.667 29H7.333zM15 16H6.999L7 26.717c0 .18.15.326.333.326H15V16zm9.999 0H17v11.043h7.667a.33.33 0 00.333-.326L24.999 16zM6.27 10.91a.321.321 0 00-.324.317v2.546c0 .09.038.17.099.228H15V11h-2.703c-.298 0-.592-.031-.877-.09H6.27zm19.46 0h-5.15a4.357 4.357 0 01-.67.085l-.207.005H17v3.001h8.955a.314.314 0 00.1-.228v-2.546a.321.321 0 00-.325-.318zM12.297 4.932c-1.226 0-2.22.926-2.22 2.067 0 .93.765 1.767 1.7 2.002L14.921 9v-.031c-.015-.35-.132-.91-.368-1.715-.446-1.522-1.208-2.32-2.257-2.32zm7.406 0c-1.049 0-1.811.799-2.257 2.321-.236.804-.353 1.366-.368 1.715L17.077 9l3.147.002c.934-.235 1.7-1.072 1.7-2.002 0-1.141-.995-2.067-2.221-2.067z" id="a"/></defs><g fill="none" fill-rule="evenodd"><mask id="b" fill="#fff"><use xlink:href="#a"/></mask><use fill="#159CE4" fill-rule="nonzero" xlink:href="#a"/><g mask="url(#b)" fill="#32383C" fill-rule="nonzero"><path d="M0 0h32v32H0z"/></g></g></svg>