<svg width="32" height="32" xmlns="http://www.w3.org/2000/svg" xmlns:xlink="http://www.w3.org/1999/xlink"><defs><path d="M16 1a1.047 1.047 0 010 2.093C8.872 3.093 3.093 8.872 3.093 16S8.872 28.907 16 28.907 28.907 23.128 28.907 16A1.047 1.047 0 0131 16c0 8.284-6.716 15-15 15-8.284 0-15-6.716-15-15C1 7.716 7.716 1 16 1zm8.55 8.505c2.234 2.19 1.8 5.385.108 7.043l-1.43 1.402-.051.054-5.777 5.662-.156.129a.994.994 0 01-1.26-.108l-5.846-5.73a.992.992 0 01-.213-.307l-1.173-1.149c-1.69-1.656-2.147-4.831.061-6.996 2.194-2.15 5.4-1.707 7.08-.06l.74.725.788-.771c1.682-1.65 4.908-2.07 7.128.106zm-5.604 1.193l-.133.12-1.487 1.454a.994.994 0 01-1.39-.001l-1.434-1.405c-.98-.96-2.975-1.236-4.297.06-1.308 1.281-1.031 3.204-.061 4.155l1.434 1.406c.093.091.164.195.213.307l4.89 4.793 5.052-4.952.025-.027 1.508-1.48c.97-.95 1.232-2.889-.108-4.203-1.296-1.27-3.194-1.085-4.212-.227z" id="a"/></defs><g fill="none" fill-rule="evenodd"><mask id="b" fill="#fff"><use xlink:href="#a"/></mask><use fill="#979797" fill-rule="nonzero" xlink:href="#a"/><g mask="url(#b)" fill="#32383C" fill-rule="nonzero"><path d="M0 0h32v32H0z"/></g></g></svg>