<svg width="32" height="32" xmlns="http://www.w3.org/2000/svg" xmlns:xlink="http://www.w3.org/1999/xlink"><defs><path d="M8.045 13.942v10.955h4v-7a1 1 0 0 1 1-1h6a1 1 0 0 1 1 1v7h4V13.942l-8-6.642-8 6.642zm0 0v10.955h16V13.942l2 1.66v10.295a1 1 0 0 1-1 1h-18a1 1 0 0 1-1-1V15.602l-1.406 1.167a1 1 0 1 1-1.278-1.538l2.684-2.228v-.106h.128l-.128.106v-.106h.128l9.233-7.666a1 1 0 0 1 1.278 0l9.233 7.666h.128v.106l-.128-.106h.128v.106l2.514 2.087a1 1 0 1 1-1.278 1.539l-1.236-1.027v10.295a1 1 0 0 1-1 1h-18a1 1 0 0 1-1-1V15.602l2-1.66zm6 10.955h4v-6h-4v6h-2 2zm6 0h-2 2zm4 0h1a1 1 0 0 0-1 1v-1zm-16 0v1a1 1 0 0 0-1-1h1zm0 0v1a1 1 0 0 0-1-1h1zm16 0h1a1 1 0 0 0-1 1v-1z" id="a"/></defs><use fill="#32383C" fill-rule="nonzero" xlink:href="#a"/></svg>