<svg width="32" height="32" xmlns="http://www.w3.org/2000/svg" xmlns:xlink="http://www.w3.org/1999/xlink"><defs><path d="M11 10h2a1 1 0 010 2h-2v2a1 1 0 01-2 0v-2H7a1 1 0 010-2h2V8a1 1 0 112 0v2zm4 12.5a1 1 0 01-2 0 7.5 7.5 0 0115 0 1 1 0 01-2 0 5.5 5.5 0 00-11 0zm5.5-8.5a4.5 4.5 0 110-9 4.5 4.5 0 010 9zm0-2a2.5 2.5 0 100-5 2.5 2.5 0 000 5zM14 0a1 1 0 010 2C7.373 2 2 7.373 2 14s5.373 12 12 12a1 1 0 010 2C6.268 28 0 21.732 0 14S6.268 0 14 0z" id="a"/></defs><g transform="translate(2 2)" fill="none" fill-rule="evenodd"><mask id="b" fill="#fff"><use xlink:href="#a"/></mask><use fill="#C5C5C5" fill-rule="nonzero" xlink:href="#a"/><g mask="url(#b)" fill="#32383C"><path d="M-2-2h32v32H-2z"/></g></g></svg>