<svg width="32" height="32" xmlns="http://www.w3.org/2000/svg" xmlns:xlink="http://www.w3.org/1999/xlink"><defs><path d="M16.01 7c-.281.003-.549.121-.744.328a1.094 1.094 0 0 0-.296.773v3.236c-.006.389.193.75.52.947.328.196.733.196 1.06 0 .328-.196.527-.558.522-.947V8.1a1.094 1.094 0 0 0-.304-.781A1.038 1.038 0 0 0 16.01 7zM8.3 9.157a1.048 1.048 0 0 0-.935.579c-.181.357-.155.788.07 1.118l1.402 2.157c.209.32.57.503.945.478.376-.026.71-.255.876-.601.166-.347.14-.758-.07-1.08l-1.4-2.156a1.045 1.045 0 0 0-.888-.495zm15.406 0c-.346.01-.666.195-.854.495l-1.401 2.157a1.099 1.099 0 0 0 .29 1.5 1.037 1.037 0 0 0 1.462-.298l1.401-2.157c.229-.335.253-.774.063-1.134a1.047 1.047 0 0 0-.96-.563zm-7.686 4.337c-5.243 0-9.577 4.107-10.107 9.347H4.108a1.051 1.051 0 0 0-.993.588c-.171.344-.15.755.055 1.079.204.324.562.51.938.49h23.826c.379.006.732-.198.923-.534a1.103 1.103 0 0 0 0-1.088 1.046 1.046 0 0 0-.923-.535h-1.807c-.53-5.24-4.863-9.347-10.106-9.347zM3.987 15.64a1.06 1.06 0 0 0-.91.822c-.103.444.077.907.45 1.155l1.051.72c.31.26.737.317 1.101.147a1.08 1.08 0 0 0 .616-.948 1.084 1.084 0 0 0-.556-.986l-1.051-.72a1.031 1.031 0 0 0-.7-.19zm23.925 0c-.2.008-.394.074-.558.19l-1.052.72a1.084 1.084 0 0 0-.556.986c.013.41.252.778.616.948.365.17.791.112 1.101-.148l1.051-.719c.39-.265.562-.763.423-1.22a1.054 1.054 0 0 0-1.025-.757zm-11.891.011c4.108 0 7.482 3.124 7.993 7.19H8.027c.512-4.066 3.886-7.19 7.994-7.19z" id="a"/></defs><use fill="#32383C" fill-rule="nonzero" xlink:href="#a"/></svg>