<svg width="32" height="32" xmlns="http://www.w3.org/2000/svg" xmlns:xlink="http://www.w3.org/1999/xlink"><defs><path d="M18.657 11.657H7a1 1 0 110-2h11.657l-2.95-2.95a1 1 0 011.414-1.414l4.243 4.243c.09.089.158.19.206.3a.999.999 0 010 1.642.998.998 0 01-.206.3l-4.243 4.243a1 1 0 11-1.414-1.414l2.95-2.95zM2 19h14a1 1 0 010 2H1a1 1 0 01-1-1V1a1 1 0 011-1h15a1 1 0 010 2H2v17z" id="a"/></defs><g transform="translate(5 6)" fill="none" fill-rule="evenodd"><mask id="b" fill="#fff"><use xlink:href="#a"/></mask><use fill="#C5C5C5" fill-rule="nonzero" xlink:href="#a"/><g mask="url(#b)" fill="#32383C"><path d="M-5-6h32v32H-5z"/></g></g></svg>