<svg width="32" height="32" xmlns="http://www.w3.org/2000/svg" xmlns:xlink="http://www.w3.org/1999/xlink"><defs><path d="M18.8 18.734l6.58 6.58a.077.077 0 1 1 .11-.108l-6.581-6.581a6.673 6.673 0 0 1-.11.109zm-.644.552a6.538 6.538 0 0 1-8.546-9.85 6.537 6.537 0 0 1 9.851 8.545l6.626 6.627a.923.923 0 1 1-1.305 1.305l-6.626-6.627zm-.716-2.02a4.537 4.537 0 1 0-6.416-6.416 4.537 4.537 0 0 0 6.416 6.415z" id="a"/></defs><g fill="none" fill-rule="evenodd"><mask id="b" fill="#fff"><use xlink:href="#a"/></mask><use fill="#C5C5C5" fill-rule="nonzero" xlink:href="#a"/><g mask="url(#b)" fill="#32383C"><path d="M0 0h32v32H0z"/></g></g></svg>