<svg width="32" height="32" xmlns="http://www.w3.org/2000/svg" xmlns:xlink="http://www.w3.org/1999/xlink"><defs><path d="M4 9.381V24h24V8.979l-11.305 9.486a.995.995 0 01-.482.22 1 1 0 01-1.2-.063L4 9.382zM5.873 8l9.91 8.315L25.691 8H5.872zM4 6h24a2 2 0 012 2v16a2 2 0 01-2 2H4a2 2 0 01-2-2V8a2 2 0 012-2z" id="a"/></defs><g fill="none" fill-rule="evenodd"><mask id="b" fill="#fff"><use xlink:href="#a"/></mask><use fill="#C5C5C5" fill-rule="nonzero" xlink:href="#a"/><g mask="url(#b)" fill="#32383C"><path d="M0 0h32v32H0z"/></g></g></svg>