<svg xmlns="http://www.w3.org/2000/svg" viewBox="0 0 32 32"><path fill="none" d="M0 0h32v32H0z"/><path d="M20.39 3.5a2 2 0 012 2 1.94 1.94 0 01-.11.63L21.2 9.38l1.59-1.59a1 1 0 011.32-.08l.1.08a1 1 0 01.08 1.32l-.08.1-1.27 1.26 1.51.3a1 1 0 01.8 1.06v.12a1 1 0 01-1.06.8h-.12l-1.36-.27a12.74 12.74 0 013.81 8.89C26.5 26.75 22.65 29 16 29S5.5 26.75 5.5 21.35A12.74 12.74 0 019.82 12a1 1 0 01.06-2H11L9.64 6.16a2 2 0 011.24-2.55 2.06 2.06 0 01.65-.11zM18.48 12h-5a10.45 10.45 0 00-6 9.35c0 4 2.8 5.65 8.5 5.65s8.5-1.64 8.5-5.65a10.45 10.45 0 00-6-9.35zM16 15.5a.57.57 0 01.57.57v.35a3.09 3.09 0 01.83.25 2 2 0 01.93.89 1.88 1.88 0 01.18.81.54.54 0 01-1.07 0 .83.83 0 00-.08-.36.77.77 0 00-.24-.28 1.59 1.59 0 00-.55-.23v2a3.71 3.71 0 011.16.51 1.76 1.76 0 01.52.59 1.89 1.89 0 01.24 1 2 2 0 01-.23.95 1.79 1.79 0 01-.63.65 2.7 2.7 0 01-1.08.35v.43a.58.58 0 01-1.15 0v-.41a2.48 2.48 0 01-1.22-.57 1.91 1.91 0 01-.68-1.46.54.54 0 011.07 0 .82.82 0 00.3.65 1.23 1.23 0 00.54.24v-2.15a3.71 3.71 0 01-1.12-.45 1.61 1.61 0 01-.54-.53 1.68 1.68 0 01-.25-.93 1.9 1.9 0 01.3-1 2 2 0 011-.81 3.4 3.4 0 01.59-.14v-.33a.57.57 0 01.61-.59zm.51 5v2a1.53 1.53 0 00.34-.09.92.92 0 00.55-.39 1 1 0 00.11-.48.86.86 0 00-.15-.55 1.1 1.1 0 00-.43-.33 2.85 2.85 0 00-.42-.16zm-1-3l-.25.05a1.46 1.46 0 00-.45.21.67.67 0 00-.3.53.45.45 0 00.14.36 1 1 0 00.43.23 3.25 3.25 0 00.43.12zm4.89-12h-8.87l1.39 4h6.14z" fill="#32383c"/></svg>