<svg width="32" height="32" xmlns="http://www.w3.org/2000/svg" xmlns:xlink="http://www.w3.org/1999/xlink"><defs><path d="M22.693 12.458c2.303 2.26 3.807 5.547 3.807 8.892C26.5 26.748 22.655 29 16 29c-6.655 0-10.5-2.252-10.5-7.65 0-3.588 1.73-7.107 4.32-9.366A1 1 0 0110 10h.979L9.644 6.156a2 2 0 011.89-2.656h8.852a2 2 0 011.898 2.63l-1.08 3.252 1.589-1.59a1 1 0 011.414 1.415l-1.262 1.262 1.501.3a1 1 0 01-.392 1.962l-1.36-.273zM13.523 12C10.159 13.364 7.5 17.316 7.5 21.35 7.5 25.358 10.305 27 16 27s8.5-1.642 8.5-5.65c0-4.034-2.659-7.986-6.023-9.35h-4.954zm-1.99-6.5l1.39 4h6.134l1.329-4h-8.853zm5.582 12.234a1.465 1.465 0 00-.553-.235v1.981l.016.004c.393.11.797.246 1.158.506.205.148.393.343.528.586.156.277.236.608.236.971 0 .348-.075.673-.228.95a1.77 1.77 0 01-.631.653c-.326.198-.693.3-1.079.354v.43a.57.57 0 01-.574.566.57.57 0 01-.575-.565v-.414c-.48-.067-.902-.24-1.232-.515a1.873 1.873 0 01-.681-1.46c0-.29.24-.527.537-.527.295 0 .535.236.535.527.004.28.102.484.302.655.125.104.307.19.538.243V20.28c-.38-.1-.769-.218-1.124-.445a1.735 1.735 0 01-.54-.537c-.164-.26-.25-.58-.248-.924 0-.33.088-.692.302-1.027a2.027 2.027 0 011.019-.803c.18-.068.378-.115.592-.144v-.335a.57.57 0 01.575-.565.57.57 0 01.574.565v.357c.302.048.579.126.824.243.417.199.747.51.931.894.124.254.183.533.183.815 0 .292-.24.528-.536.528a.532.532 0 01-.537-.528.801.801 0 00-.078-.36.777.777 0 00-.234-.28zm-.194 2.925a2.865 2.865 0 00-.421-.159v2a2.41 2.41 0 00.343-.086c.286-.103.444-.226.543-.392a.933.933 0 00.114-.484c-.002-.272-.064-.426-.151-.55-.088-.123-.223-.229-.428-.329zm-1.852-1.776c.123.043.272.081.431.117v-1.5a2.384 2.384 0 00-.25.052 1.358 1.358 0 00-.45.207c-.212.155-.3.363-.3.534.004.187.058.278.137.359.081.08.217.157.432.231z" id="a"/></defs><g fill="none" fill-rule="evenodd"><mask id="b" fill="#fff"><use xlink:href="#a"/></mask><use fill="#979797" fill-rule="nonzero" xlink:href="#a"/><g mask="url(#b)" fill="#32383C" fill-rule="nonzero"><path d="M0 0h32v32H0z"/></g></g></svg>