<svg width="32" height="32" xmlns="http://www.w3.org/2000/svg" xmlns:xlink="http://www.w3.org/1999/xlink"><defs><path d="M26 .755a1.8 1.8 0 011.108 2.064l-.661 3.019a1.8 1.8 0 01-2.455 1.275c-1.311-.55-2.143-.717-2.27-.695l-.015.005-.64.553c-.135.114-.266.22-.4.322-.98.75-1.904 1.195-2.861 1.212a2.787 2.787 0 01-.96-.15c-.934-.321-2.116-.652-3.545-.99l-1.057 1.634a1.805 1.805 0 01.583.424l.101.12 4.884 6.369 1.748-2.33a1.8 1.8 0 012.385-.453l.135.093a1.8 1.8 0 01.252.228l.108.132 4 5.333a1.8 1.8 0 01-1.274 2.872L25 21.8h-2.678l.08.105a1.8 1.8 0 01-1.429 2.895H2.027a1.8 1.8 0 01-1.429-2.895l8.929-11.647 5.301-8.193c.073-.112.17-.2.279-.262a1.8 1.8 0 012.205-.662l.238.1c1.008.415 1.715.62 2.06.62.031 0 .083-.017.173-.07.041-.024.087-.054.14-.091l.179-.137.444-.357.211-.16c.627-.459 1.203-.723 1.939-.81 1.011-.12 2.113.058 3.304.52zM11.34 10.522l-.508.662-.161.25a.799.799 0 01-.178.195L1.868 22.88a.2.2 0 00.159.321h18.946a.2.2 0 00.159-.322l-9.473-12.356-.037-.037a.2.2 0 00-.28.037zm9.545 3.98l-.046.045-2.017 2.689 2.272 2.964H25a.2.2 0 00.083-.018l.037-.022a.2.2 0 00.07-.223l-.03-.057-4-5.333-.04-.04a.2.2 0 00-.234-.005zm1.998-12.677c-.414.05-.754.201-1.168.502l-.182.138-.576.459a3.72 3.72 0 01-.367.248c-.317.186-.635.289-.98.289-.652 0-1.6-.285-2.925-.847a.2.2 0 00-.245.074l-2.147 3.276.442.112c1.014.26 1.89.516 2.63.771.13.045.266.065.412.063.486-.008 1.067-.267 1.718-.735l.197-.147c.058-.044.116-.09.174-.136l.364-.305.435-.379c.698-.598 1.851-.423 3.69.324l.255.105.035.011a.2.2 0 00.238-.152l.661-3.02a.2.2 0 00-.123-.229c-.962-.372-1.807-.508-2.538-.422z" id="a"/></defs><g transform="translate(2 4)" fill="none" fill-rule="evenodd"><mask id="b" fill="#fff"><use xlink:href="#a"/></mask><use fill="#979797" fill-rule="nonzero" xlink:href="#a"/><g mask="url(#b)" fill="#32383C" fill-rule="nonzero"><path d="M-3-3h32v32H-3z"/></g></g></svg>