<svg width="32" height="32" xmlns="http://www.w3.org/2000/svg" xmlns:xlink="http://www.w3.org/1999/xlink"><defs><path d="M6.497 28.514c-.3-.2-.497-.54-.497-.927V4.114C6 3.499 6.499 3 7.114 3h18.36a1.114 1.114 0 011.099 1.297c.045.121.07.253.07.39V27.78c0 .066-.006.131-.017.194A1.114 1.114 0 0125.516 29h-18.1c-.382 0-.719-.192-.92-.486zm1.73-1.742h16.188V5.228H8.228v21.544zM21.3 9.126a1.114 1.114 0 110 2.228h-9.435a1.114 1.114 0 110-2.228H21.3zm0 5.57a1.114 1.114 0 110 2.227h-9.435a1.114 1.114 0 110-2.227H21.3zm0 5.569a1.114 1.114 0 110 2.228h-9.435a1.114 1.114 0 110-2.228H21.3z" id="a"/></defs><g fill="none" fill-rule="evenodd"><use fill="#32383C" fill-rule="nonzero" xlink:href="#a"/><path fill="none" d="M0 0h32v32H0z"/></g></svg>