<svg width="32" height="32" xmlns="http://www.w3.org/2000/svg" xmlns:xlink="http://www.w3.org/1999/xlink"><defs><path d="M7.262 25.548c.072 0 .143-.01.21-.028l5.456-1.474a.814.814 0 0 0 .361-.209l11.465-11.465a2.714 2.714 0 0 0 0-3.83l-1.293-1.294a2.69 2.69 0 0 0-1.915-.793 2.69 2.69 0 0 0-1.916.793L8.165 18.713c-.1.1-.17.223-.209.361l-1.473 5.457a.801.801 0 0 0 .78 1.017zm1.887-4.705l2.006 2.005-2.752.742.746-2.747zm3.57 1.283l-2.843-2.843 6.655-6.654 2.838 2.838-6.65 6.659zm4.958-10.638l1.212-1.212 2.837 2.838-1.212 1.212-2.837-2.838zm3.864-3.413c.29 0 .566.114.775.319l1.293 1.293a1.09 1.09 0 0 1 0 1.545l-.742.741-2.838-2.838.742-.741c.204-.205.48-.319.77-.319z" id="a"/></defs><g fill="none" fill-rule="evenodd"><mask id="b" fill="#fff"><use xlink:href="#a"/></mask><use fill="#C5C5C5" fill-rule="nonzero" xlink:href="#a"/><g mask="url(#b)" fill="#32383C"><path d="M0 0h32v32H0z"/></g></g></svg>