<svg width="32" height="32" xmlns="http://www.w3.org/2000/svg" xmlns:xlink="http://www.w3.org/1999/xlink"><defs><path d="M9 4v25h15V4H9zm0-2h15a2 2 0 012 2v25a2 2 0 01-2 2H9a2 2 0 01-2-2V4a2 2 0 012-2zm4 6v13h7V8h-7zm-2-2h11v17H11V6zm5.5 21a1.5 1.5 0 110-3 1.5 1.5 0 010 3z" id="a"/></defs><g fill="none" fill-rule="evenodd"><mask id="b" fill="#fff"><use xlink:href="#a"/></mask><use fill="#C5C5C5" fill-rule="nonzero" xlink:href="#a"/><g mask="url(#b)" fill="#32383C"><path d="M0 0h32v32H0z"/></g><path fill="none" d="M.5.5h31v31H.5z"/></g></svg>