<svg width="32" height="32" xmlns="http://www.w3.org/2000/svg" xmlns:xlink="http://www.w3.org/1999/xlink"><defs><path d="M10.087 16.39l2.833-2.772a.96.96 0 011.302-.039l1.853 1.61 2.489-2.96a.96.96 0 011.31-.15l2.648 1.978V8.652a.565.565 0 00-.565-.565H10.652a.565.565 0 00-.565.565v7.737zm0 2.633v.934c0 .312.253.565.565.565h11.305a.565.565 0 00.565-.565V16.41a.961.961 0 01-.234-.13l-2.838-2.119-2.533 3.012a.96.96 0 01-1.366.107l-1.92-1.67-3.322 3.25a.961.961 0 01-.222.163zM7.261 4.922a.34.34 0 00-.34.339v21.478c0 .187.153.34.34.34h18.087a.34.34 0 00.339-.34V5.261a.34.34 0 00-.34-.34H7.262zM7.26 3h18.087a2.26 2.26 0 012.26 2.26v21.48a2.26 2.26 0 01-2.26 2.26H7.26A2.26 2.26 0 015 26.74V5.26A2.26 2.26 0 017.26 3zm3.391 3.391h11.305a2.26 2.26 0 012.26 2.261v11.305a2.26 2.26 0 01-2.26 2.26H10.652a2.26 2.26 0 01-2.26-2.26V8.652a2.26 2.26 0 012.26-2.26zm4.522 5.652a1.13 1.13 0 110-2.26 1.13 1.13 0 010 2.26z" id="a"/></defs><use fill="#32383C" fill-rule="nonzero" xlink:href="#a"/></svg>