<svg width="32" height="32" xmlns="http://www.w3.org/2000/svg" xmlns:xlink="http://www.w3.org/1999/xlink"><defs><path d="M1.745 12.96a9.295 9.295 0 0 0 18.55.872H10.168V3.705c-4.725.44-8.423 4.416-8.423 9.255zm20.335-.872v.872c0 6.097-4.943 11.04-11.04 11.04C4.943 24 0 19.057 0 12.96 0 6.863 4.943 1.92 11.04 1.92h.872v10.168H22.08zM14.4 9.6V0c5.068 0 9.222 4.23 9.6 9.6h-9.6z" id="a"/></defs><g transform="translate(4 4)" fill="none" fill-rule="evenodd"><mask id="b" fill="#fff"><use xlink:href="#a"/></mask><use fill="#32383C" fill-rule="nonzero" xlink:href="#a"/><g mask="url(#b)" fill="#32383C"><path d="M-3.84-3.84h31v31h-31z"/></g></g></svg>