<svg width="32" height="32" xmlns="http://www.w3.org/2000/svg" xmlns:xlink="http://www.w3.org/1999/xlink"><defs><path d="M16 29C8.82 29 3 23.18 3 16S8.82 3 16 3s13 5.82 13 13-5.82 13-13 13zm0-2c6.075 0 11-4.925 11-11S22.075 5 16 5 5 9.925 5 16s4.925 11 11 11zm-3-16a1 1 0 0 1 1.582-.813l7.01 5.012a1 1 0 0 1 0 1.627l-7.01 5.013A1 1 0 0 1 13 21.026V11zm2 8.081l4.29-3.068L15 12.945v6.136z" id="a"/></defs><g fill="none" fill-rule="evenodd"><mask id="b" fill="#fff"><use xlink:href="#a"/></mask><use fill="#C5C5C5" fill-rule="nonzero" xlink:href="#a"/><g mask="url(#b)" fill="#32383C"><path d="M0 0h32v32H0z"/></g></g></svg>