<svg width="32" height="32" xmlns="http://www.w3.org/2000/svg" xmlns:xlink="http://www.w3.org/1999/xlink"><defs><path d="M9 26.382a1 1 0 11-2 0c0-4.986 4.029-9.03 9-9.03s9 4.044 9 9.03a1 1 0 11-2 0c0-3.883-3.135-7.03-7-7.03s-7 3.147-7 7.03zm7-10.735c-2.932 0-5.308-2.384-5.308-5.323C10.692 7.384 13.068 5 16 5s5.308 2.384 5.308 5.324c0 2.939-2.376 5.323-5.308 5.323zm0-2a3.316 3.316 0 003.308-3.323A3.316 3.316 0 0016 7a3.316 3.316 0 00-3.308 3.324A3.316 3.316 0 0016 13.647z" id="a"/></defs><g fill="none" fill-rule="evenodd"><mask id="b" fill="#fff"><use xlink:href="#a"/></mask><use fill="#C5C5C5" fill-rule="nonzero" xlink:href="#a"/><g mask="url(#b)" fill="#32383C"><path d="M0 0h32v32H0z"/></g></g></svg>