<svg width="32" height="32" xmlns="http://www.w3.org/2000/svg" xmlns:xlink="http://www.w3.org/1999/xlink"><defs><path d="M13 14.536V3a1 1 0 012 0v11.435l3.192-3.192a1 1 0 111.415 1.414l-4.95 4.95a1 1 0 01-1.414 0l-4.95-4.95a1 1 0 111.414-1.414L13 14.536zM4.1 1.1a1 1 0 011.415 1.414C.828 7.2.828 14.799 5.515 19.485c4.686 4.687 12.284 4.687 16.97 0 4.687-4.686 4.687-12.284 0-16.97A1 1 0 0123.9 1.1c5.468 5.467 5.468 14.331 0 19.798-5.467 5.468-14.331 5.468-19.798 0-5.468-5.467-5.468-14.331 0-19.798z" id="a"/></defs><g transform="translate(2 5)" fill="none" fill-rule="evenodd"><mask id="b" fill="#fff"><use xlink:href="#a"/></mask><use fill="#C5C5C5" fill-rule="nonzero" xlink:href="#a"/><g mask="url(#b)" fill="#32383C"><path d="M-2-5h32v32H-2z"/></g></g></svg>