<svg width="32" height="32" xmlns="http://www.w3.org/2000/svg" xmlns:xlink="http://www.w3.org/1999/xlink"><defs><path d="M24.2 20.689l1.533-.62c.461-.186.996.016 1.193.45.198.436-.016.94-.477 1.126l-2.838 1.147a.995.995 0 01-.656.207.916.916 0 01-.881-.519.828.828 0 01-.05-.14l-1.856-2.785a1 1 0 011.664-1.11l.82 1.231c.348-.898.53-1.858.53-2.845 0-4.427-3.66-8.021-8.182-8.021-4.626 0-8.182 3.416-8.182 8.021 0 2.41 1.29 5.04 3.561 6.232 1.446.758 2.66 1.127 3.625 1.127.502 0 .909.406.909.905 0 .5-.407.905-.91.905-1.3 0-2.785-.452-4.471-1.336C6.6 23.127 5 19.86 5 16.831 5 11.211 9.384 7 15 7c5.52 0 10 4.399 10 9.831a9.66 9.66 0 01-.8 3.858z" id="a"/></defs><g fill="none" fill-rule="evenodd"><mask id="b" fill="#fff"><use xlink:href="#a"/></mask><use fill="#979797" fill-rule="nonzero" xlink:href="#a"/><g mask="url(#b)" fill="#32383C" fill-rule="nonzero"><path d="M0 0h32v32H0z"/></g></g></svg>