<svg width="32" height="32" xmlns="http://www.w3.org/2000/svg" xmlns:xlink="http://www.w3.org/1999/xlink"><defs><path d="M6.948 22.022a.91.91 0 01-.301-.678V5.913c0-.504.409-.913.913-.913h11.527a.913.913 0 110 1.826H8.473V20.5h9.688l-.014-10.586a.913.913 0 011.826-.002l.016 11.366a.91.91 0 01-.283.661.912.912 0 01-.746.387H7.628a.91.91 0 01-.68-.304zM14 0c7.732 0 14 6.268 14 14s-6.268 14-14 14S0 21.732 0 14a1 1 0 012 0c0 6.627 5.373 12 12 12s12-5.373 12-12S20.627 2 14 2a1 1 0 010-2zm.67 9c.54 0 .977.448.977 1s-.438 1-.978 1h-3.045a.989.989 0 01-.977-1c0-.552.437-1 .977-1h3.045zm0 4c.54 0 .977.448.977 1s-.438 1-.978 1h-3.045a.989.989 0 01-.977-1c0-.552.437-1 .977-1h3.045z" id="a"/></defs><g transform="translate(2 2)" fill="none" fill-rule="evenodd"><mask id="b" fill="#fff"><use xlink:href="#a"/></mask><use fill="#593C3C" fill-rule="nonzero" xlink:href="#a"/><g mask="url(#b)" fill="#32383C" fill-rule="nonzero"><path d="M-2-2h32v32H-2z"/></g></g></svg>