<svg width="32" height="32" xmlns="http://www.w3.org/2000/svg" xmlns:xlink="http://www.w3.org/1999/xlink"><defs><path d="M23.028 21.026h1.307a1 1 0 1 1 0 2h-1.307a2.976 2.976 0 0 1-5.606 0H7a1 1 0 0 1 0-2h10.422a2.976 2.976 0 0 1 5.606 0zM15.172 8.974a2.976 2.976 0 0 1 5.606 0h3.294a1 1 0 1 1 0 2h-3.294a2.976 2.976 0 0 1-5.606 0H7a1 1 0 1 1 0-2h8.172zm-.38 6.04h9.28a1 1 0 1 1 0 2h-9.309a2.976 2.976 0 0 1-5.576 0H7.094a1 1 0 0 1 0-2h2.065a2.976 2.976 0 0 1 5.632 0zm-2.817 1.933A.974.974 0 1 0 11.976 15a.974.974 0 0 0-.001 1.948zm6-6A.974.974 0 1 0 17.976 9a.974.974 0 0 0-.001 1.948zM20.225 23a.974.974 0 1 0 .001-1.949.974.974 0 0 0-.001 1.949z" id="a"/></defs><g fill="none" fill-rule="evenodd"><mask id="b" fill="#fff"><use xlink:href="#a"/></mask><use fill="#C5C5C5" fill-rule="nonzero" xlink:href="#a"/><g mask="url(#b)" fill="#32383C"><path d="M0 0h32v32H0z"/></g></g></svg>