<svg width="32" height="32" xmlns="http://www.w3.org/2000/svg" xmlns:xlink="http://www.w3.org/1999/xlink"><defs><path d="M24.905 7.98l-1.441-1.478-1.729 1.772a1.067 1.067 0 01-1.519 0l-1.728-1.772-1.729 1.773a1.067 1.067 0 01-1.519 0l-1.73-1.773-1.727 1.772a1.067 1.067 0 01-1.52 0L8.536 6.502l-1.44 1.476v17.044l1.44 1.476 1.729-1.772a1.067 1.067 0 011.519 0l1.728 1.772 1.729-1.773a1.067 1.067 0 011.52 0l1.728 1.773 1.728-1.772a1.067 1.067 0 011.52 0l1.728 1.772 1.44-1.477V7.979zm2.018-.793c.05.119.077.249.077.385v17.6c0 .044-.003.087-.008.129.037.293-.055.599-.28.83l-2.489 2.551a1.067 1.067 0 01-1.519 0l-1.728-1.772-1.728 1.772a1.067 1.067 0 01-1.52 0L16 26.91l-1.73 1.773a1.067 1.067 0 01-1.519 0l-1.728-1.772-1.728 1.772a1.067 1.067 0 01-1.52 0l-2.487-2.55a1.002 1.002 0 01-.28-.83 1.004 1.004 0 01-.008-.13v-17.6a1.011 1.011 0 01.288-.704l2.488-2.55a1.067 1.067 0 011.519 0l1.728 1.772 1.728-1.772a1.067 1.067 0 011.52 0L16 6.09l1.729-1.773a1.067 1.067 0 011.519 0l1.728 1.772 1.728-1.772a1.067 1.067 0 011.52 0l2.488 2.551c.096.099.168.212.216.331l-.005-.013zm-8.694 4.773c.207-.358.68-.473 1.056-.256.375.217.512.683.305 1.042l-4.986 8.636c-.207.358-.68.473-1.055.256-.376-.217-.513-.683-.306-1.042l4.986-8.636zm-5.892 3.677c-1.127-.65-1.538-2.05-.916-3.127.62-1.076 2.039-1.42 3.166-.77 1.127.65 1.538 2.05.916 3.127-.621 1.076-2.039 1.421-3.166.77zm.75-1.299c.376.217.848.102 1.055-.257.207-.358.07-.825-.305-1.042-.376-.217-.848-.102-1.056.257-.207.358-.07.825.306 1.042zm5.13 7.313c-1.126-.65-1.537-2.05-.915-3.127.62-1.076 2.039-1.42 3.166-.77 1.127.651 1.538 2.051.916 3.127-.621 1.076-2.039 1.421-3.166.77zm.75-1.299c.377.217.85.102 1.056-.256.208-.36.07-.826-.305-1.043-.376-.217-.848-.102-1.055.257-.208.359-.07.825.305 1.042z" id="a"/></defs><g fill="none" fill-rule="evenodd"><mask id="b" fill="#fff"><use xlink:href="#a"/></mask><use fill="#979797" fill-rule="nonzero" xlink:href="#a"/><g mask="url(#b)" fill="#32383C" fill-rule="nonzero"><path d="M0 0h32v32H0z"/></g></g></svg>