<svg width="32" height="32" xmlns="http://www.w3.org/2000/svg" xmlns:xlink="http://www.w3.org/1999/xlink"><defs><path d="M14 13.426V6v7.426zm1 .145l5.593 3.1a1 1 0 01-.97 1.75l-5.748-3.187a.995.995 0 01-.38-.37A1 1 0 0113 14V6a1 1 0 012 0v7.571zm-.202 1.032l5.31 2.943-5.31-2.943zM14 28a1 1 0 010-2c6.627 0 12-5.373 12-12S20.627 2 14 2 2 7.373 2 14a1 1 0 01-2 0C0 6.268 6.268 0 14 0s14 6.268 14 14-6.268 14-14 14z" id="a"/></defs><g transform="translate(2 2)" fill="none" fill-rule="evenodd"><mask id="b" fill="#fff"><use xlink:href="#a"/></mask><use fill="#C5C5C5" fill-rule="nonzero" xlink:href="#a"/><g mask="url(#b)" fill="#32383C"><path d="M-2-2h32v32H-2z"/></g></g></svg>