<svg width="32" height="32" xmlns="http://www.w3.org/2000/svg" xmlns:xlink="http://www.w3.org/1999/xlink"><defs><path d="M11.728 2.064c.537-.198 1.131.08 1.328.62a1.043 1.043 0 01-.616 1.335c-4.986 1.838-8.37 6.627-8.37 12.06 0 7.09 5.713 12.839 12.76 12.839 5.582 0 10.467-3.639 12.15-8.901a1.033 1.033 0 011.302-.672c.544.176.843.762.668 1.31C28.993 26.771 23.317 31 16.83 31 8.64 31 2 24.32 2 16.079 2 9.766 5.933 4.2 11.728 2.064zm15.252 8.86a.75.75 0 01.16.966l-.064.09-9.142 10.97H21.9a.75.75 0 01.743.648l.007.102a.75.75 0 01-.648.743l-.102.007h-5.5a.75.75 0 01-.713-.518.75.75 0 01-.124-.29l-.012-.101-.3-5.5a.75.75 0 011.486-.183l.012.101.207 3.82 8.968-10.76a.75.75 0 011.056-.095zM21.1 4.75a.75.75 0 01.713.518.75.75 0 01.124.29l.012.101.3 5.5a.75.75 0 01-1.486.183l-.012-.101-.207-3.82-8.968 10.76a.75.75 0 01-1.217-.87l.065-.091 9.142-10.97H15.6a.75.75 0 01-.743-.648L14.85 5.5a.75.75 0 01.648-.743l.102-.007h5.5z" id="a"/></defs><g fill="none" fill-rule="evenodd"><mask id="b" fill="#fff"><use xlink:href="#a"/></mask><use fill="#979797" fill-rule="nonzero" xlink:href="#a"/><g mask="url(#b)" fill="#32383C" fill-rule="nonzero"><path d="M0 0h32v32H0z"/></g></g></svg>