<svg width="32" height="32" xmlns="http://www.w3.org/2000/svg" xmlns:xlink="http://www.w3.org/1999/xlink"><defs><path d="M24.556 7h1.666a.778.778 0 1 1 0 1.556h-1.666V25a3 3 0 0 1-3 3H10.444a3 3 0 0 1-3-3V8.556H5.778a.778.778 0 0 1 0-1.556H11V6a2 2 0 0 1 2-2h6a2 2 0 0 1 2 2v1h3.556zM13 7h6V6h-6v1zM9.444 9v16a1 1 0 0 0 1 1h11.112a1 1 0 0 0 1-1V9H9.444zm3.306 4.5a.75.75 0 1 1 1.5 0v8.952a.75.75 0 1 1-1.5 0V13.5zm5 0a.75.75 0 1 1 1.5 0v8.952a.75.75 0 1 1-1.5 0V13.5z" id="a"/></defs><use fill="#32383C" fill-rule="nonzero" xlink:href="#a"/></svg>