<svg width="32" height="32" xmlns="http://www.w3.org/2000/svg" xmlns:xlink="http://www.w3.org/1999/xlink"><defs><path d="M24.943 18.496a.73.73 0 01.057.284v4.666c0 .43-.375.778-.838.778-.462 0-.837-.349-.837-.778v-2.87l-2.457 2.144c-2.033 1.89-4.967 2.678-7.772 2.088-2.805-.59-5.088-2.474-6.048-4.993-.154-.405.074-.85.51-.992.436-.144.915.068 1.07.473.767 2.015 2.594 3.523 4.838 3.994 2.244.472 4.591-.159 6.236-1.687l2.346-2.047h-2.911c-.463 0-.838-.348-.838-.778 0-.43.375-.778.838-.778h5.025a.84.84 0 01.777.487l.004.01zM6.057 14.433A.938.938 0 016 14.109V8.776c0-.49.375-.889.838-.889.462 0 .837.398.837.89v3.279l2.457-2.45c2.033-2.16 4.967-3.06 7.772-2.387 2.805.674 5.088 2.828 6.048 5.706.154.463-.074.971-.51 1.135-.436.164-.915-.079-1.07-.542-.767-2.302-2.594-4.025-4.838-4.564-2.244-.54-4.591.182-6.236 1.928l-2.346 2.34h2.911c.463 0 .838.398.838.889 0 .49-.375.889-.838.889H6.838a.84.84 0 01-.777-.556l-.004-.011z" id="a"/></defs><g fill="none" fill-rule="evenodd"><mask id="b" fill="#fff"><use xlink:href="#a"/></mask><use fill="#D45459" xlink:href="#a"/><g mask="url(#b)" fill="#32383C" fill-rule="nonzero"><path d="M0 0h32v32H0z"/></g></g></svg>