<svg width="32" height="32" xmlns="http://www.w3.org/2000/svg" xmlns:xlink="http://www.w3.org/1999/xlink"><defs><path d="M17 9.464V22a1 1 0 01-2 0V9.364l-3.293 3.293a1 1 0 01-1.414-1.414l4.95-4.95a1 1 0 011.414 0l4.95 4.95a1 1 0 11-1.415 1.414L17 9.464zM26 26v-6a1 1 0 012 0v7a1 1 0 01-1 1H5a.997.997 0 01-1-1v-7a1 1 0 012 0v6h20z" id="a"/></defs><g fill="none" fill-rule="evenodd"><mask id="b" fill="#fff"><use xlink:href="#a"/></mask><use fill="#C5C5C5" xlink:href="#a"/><g mask="url(#b)" fill="#32383C" fill-rule="nonzero"><path d="M0 0h32v32H0z"/></g></g></svg>