<svg width="32" height="32" xmlns="http://www.w3.org/2000/svg" xmlns:xlink="http://www.w3.org/1999/xlink"><defs><path d="M17.87 15.276l-4.197-3.357-5.879 7.688a1 1 0 11-1.588-1.214l6.497-8.498.003-.002a1 1 0 011.421-.172l4.18 3.344 7.384-10.153a1 1 0 011.618 1.176l-7.996 10.994-.032.043a1 1 0 01-1.411.151zM14 0a1 1 0 010 2C7.373 2 2 7.373 2 14s5.373 12 12 12 12-5.373 12-12a1 1 0 012 0c0 7.732-6.268 14-14 14S0 21.732 0 14 6.268 0 14 0z" id="a"/></defs><g transform="translate(2 2)" fill="none" fill-rule="evenodd"><mask id="b" fill="#fff"><use xlink:href="#a"/></mask><use fill="#C5C5C5" fill-rule="nonzero" xlink:href="#a"/><g mask="url(#b)" fill="#32383C"><path d="M-2-2h32v32H-2z"/></g></g></svg>