<svg width="32" height="32" xmlns="http://www.w3.org/2000/svg" xmlns:xlink="http://www.w3.org/1999/xlink"><defs><path d="M16 14.586l4.793-4.793a1 1 0 0 1 1.414 1.414L17.414 16l4.793 4.793a1 1 0 0 1-1.414 1.414L16 17.414l-4.793 4.793a1 1 0 1 1-1.414-1.414L14.586 16l-4.793-4.793a1 1 0 0 1 1.414-1.414L16 14.586zM28.5 16c0 6.904-5.596 12.5-12.5 12.5S3.5 22.904 3.5 16 9.096 3.5 16 3.5 28.5 9.096 28.5 16zm-2 0c0-5.799-4.701-10.5-10.5-10.5S5.5 10.201 5.5 16 10.201 26.5 16 26.5 26.5 21.799 26.5 16z" id="a"/></defs><g fill="none" fill-rule="evenodd"><mask id="b" fill="#fff"><use xlink:href="#a"/></mask><use fill="#C5C5C5" fill-rule="nonzero" xlink:href="#a"/><g mask="url(#b)" fill="#32383C"><path d="M0 0h32v32H0z"/></g></g></svg>