<svg width="32" height="32" viewBox="0 0 32 32" fill="none" xmlns="http://www.w3.org/2000/svg">
<path d="M14.5986 27.9784L15.3253 28.3764L21.8651 19.022H27.782C29.5467 19.022 31 17.6288 31 15.937C31 14.2452 29.5467 12.852 27.782 12.852H21.8651L15.3253 3.49758C15.1177 3.19903 14.7024 3 14.2872 3C13.9758 3 13.6644 3.09952 13.4568 3.39806C12.5225 4.2937 12.1073 5.38837 12.1073 6.58256C12.1073 7.08013 12.2111 7.67723 12.4187 8.1748L14.2872 12.9515H6.39793C6.19032 12.9515 6.08651 12.9515 5.8789 12.9515L5.98271 13.7477L6.70935 13.3496L3.80278 9.07044C3.59516 8.7719 3.28374 8.57287 2.86852 8.57287C2.66091 8.57287 2.34949 8.67238 2.14188 8.97093L1.62285 9.36899C1.20762 9.76705 1.00001 10.3641 1.00001 10.8617C1.00001 11.0608 1.00001 11.3593 1.10381 11.5583L1.83046 11.2598L1.10381 11.4588L2.5571 16.0365L1.10381 20.4152L1.93426 20.6142L1.20762 20.3157C1.00001 20.7137 1.00001 20.9128 1.00001 21.2113C1.00001 21.7089 1.20762 22.2065 1.62285 22.6045L2.14188 23.1021C2.34949 23.3012 2.66091 23.4007 2.86852 23.4007C3.17994 23.4007 3.59516 23.2016 3.80278 22.9031L6.70935 18.7234L5.98271 18.3254L5.8789 19.1215C5.98271 19.1215 6.19032 19.1215 6.29413 19.1215H14.1834L12.3149 23.8982C12.1073 24.3958 12.0035 24.9929 12.0035 25.4905C12.0035 26.6847 12.5225 27.7793 13.3529 28.675C13.5606 28.874 13.872 29.073 14.1834 28.9735C14.5986 28.9735 15.0138 28.7745 15.2215 28.476L14.5986 27.9784L13.872 27.5803L14.1834 27.7793V27.3813C14.0796 27.3813 13.872 27.4808 13.872 27.5803L14.1834 27.7793V27.3813V27.7793L14.4948 27.4808C14.391 27.3813 14.2872 27.3813 14.1834 27.3813V27.7793L14.4948 27.4808C13.872 26.8837 13.6644 26.1871 13.6644 25.391C13.6644 25.0924 13.7682 24.6944 13.872 24.3958L16.2595 18.5244C16.3633 18.3254 16.3633 18.0268 16.1557 17.8278C15.9481 17.6288 15.7405 17.5293 15.4291 17.5293H6.39793H6.19032C5.8789 17.5293 5.56748 17.6288 5.35987 17.8278L2.45329 22.0075L2.97233 22.306V21.7089C2.76471 21.7089 2.5571 21.8084 2.45329 21.9079L2.97233 22.2065V21.6094V22.2065L3.38755 21.8084C3.17994 21.9079 3.07613 21.8084 2.86852 21.8084V22.4055L3.28374 22.0075L2.76471 21.5099C2.66091 21.4104 2.66091 21.3108 2.66091 21.2113V21.0123L4.218 16.3351C4.218 16.136 4.218 16.0365 4.218 15.8375L2.66091 11.0608V10.9612V10.7622C2.66091 10.6627 2.66091 10.5632 2.76471 10.4637L3.28374 9.96608L2.86852 9.66753V10.2646C2.97233 10.2646 3.17994 10.1651 3.28374 10.0656L2.86852 9.66753V10.2646V9.66753L2.45329 9.96608C2.5571 10.1651 2.76471 10.1651 2.97233 10.1651V9.66753L2.45329 9.96608L5.35987 14.1457C5.56748 14.4443 5.8789 14.5438 6.19032 14.4443H6.39793H15.5329C15.8443 14.4443 16.0519 14.3448 16.2595 14.1457C16.4671 13.9467 16.4671 13.6482 16.3633 13.4491L13.9758 7.57771C13.872 7.27916 13.7682 6.8811 13.7682 6.58256C13.7682 5.78643 14.0796 5.08982 14.5986 4.49273L14.2872 4.19419V4.59225C14.391 4.59225 14.4948 4.59225 14.5986 4.49273L14.2872 4.19419V4.59225V4.19419L13.9758 4.39322C14.0796 4.49273 14.1834 4.59225 14.2872 4.59225V4.19419L13.9758 4.39322L20.7232 14.0462C20.827 14.2452 21.1384 14.4443 21.4498 14.4443H27.782C28.6125 14.4443 29.3391 15.1409 29.3391 15.937C29.3391 16.7331 28.6125 17.4297 27.782 17.4297H21.4498C21.1384 17.4297 20.9308 17.5293 20.7232 17.8278L13.9758 27.4808L14.5986 27.9784Z" fill="#32383C"/>
</svg>
