<svg width="24" height="21" viewBox="0 0 24 21" fill="none" xmlns="http://www.w3.org/2000/svg">
<g id="Vector">
<path fill-rule="evenodd" clip-rule="evenodd" d="M2.18182 11.0548V15.4768H21.8182V11.0548H2.18182ZM1.09091 8.84386C0.488417 8.84386 0 9.3388 0 9.94935V16.5822C0 17.1928 0.488417 17.6877 1.09091 17.6877H22.9091C23.5116 17.6877 24 17.1928 24 16.5822V9.94935C24 9.3388 23.5116 8.84386 22.9091 8.84386H1.09091Z" fill="#32383C"/>
<path fill-rule="evenodd" clip-rule="evenodd" d="M4.36964 17.7332L4.36573 18.7806L5.46283 18.7848L5.46674 17.7374L4.36964 17.7332ZM3.28699 15.518C2.6845 15.5157 2.19424 16.0088 2.19196 16.6193L2.1798 19.8777C2.17752 20.4883 2.66408 20.9851 3.26657 20.9874L6.54548 21C7.14797 21.0023 7.63823 20.5092 7.64051 19.8987L7.65267 16.6402C7.65495 16.0297 7.16839 15.5329 6.5659 15.5306L3.28699 15.518Z" fill="#32383C"/>
<path fill-rule="evenodd" clip-rule="evenodd" d="M18.5514 17.7332L18.5475 18.7807L19.6446 18.7849L19.6485 17.7374L18.5514 17.7332ZM17.4688 15.5181C16.8663 15.5157 16.376 16.0088 16.3738 16.6193L16.3616 19.8778C16.3593 20.4883 16.8459 20.9851 17.4484 20.9874L20.7273 21C21.3298 21.0023 21.82 20.5092 21.8223 19.8987L21.8345 16.6403C21.8368 16.0297 21.3502 15.5329 20.7477 15.5306L17.4688 15.5181Z" fill="#32383C"/>
<path fill-rule="evenodd" clip-rule="evenodd" d="M18.7528 2.21097H5.24725L4.5927 8.84386H19.4073L18.7528 2.21097ZM5.24725 0C4.12633 0 3.18779 0.860718 3.07626 1.99097L2.42171 8.62386C2.29327 9.92543 3.30189 11.0548 4.5927 11.0548H19.4073C20.6981 11.0548 21.7067 9.92542 21.5783 8.62386L20.9237 1.99097C20.8122 0.860717 19.8737 0 18.7528 0H5.24725Z" fill="#32383C"/>
<path fill-rule="evenodd" clip-rule="evenodd" d="M6.54545 14.3713C7.14795 14.3713 7.63636 13.8763 7.63636 13.2658C7.63636 12.6553 7.14795 12.1603 6.54545 12.1603C5.94296 12.1603 5.45455 12.6553 5.45455 13.2658C5.45455 13.8763 5.94296 14.3713 6.54545 14.3713Z" fill="#32383C"/>
<path fill-rule="evenodd" clip-rule="evenodd" d="M17.4545 14.3713C18.057 14.3713 18.5455 13.8763 18.5455 13.2658C18.5455 12.6553 18.057 12.1603 17.4545 12.1603C16.8521 12.1603 16.3636 12.6553 16.3636 13.2658C16.3636 13.8763 16.8521 14.3713 17.4545 14.3713Z" fill="#32383C"/>
</g>
</svg>
