<svg width="24" height="21" viewBox="0 0 24 21" fill="none" xmlns="http://www.w3.org/2000/svg">
<path fill-rule="evenodd" clip-rule="evenodd" d="M18.7654 1.5H5.37424C5.12836 1.5 4.91897 1.67877 4.88043 1.92162L3.75687 9H20.2705L19.2604 1.92929C19.2252 1.68297 19.0142 1.5 18.7654 1.5ZM20.7453 1.71716C20.6046 0.73186 19.7607 0 18.7654 0H5.37424C4.39071 0 3.55316 0.715097 3.39897 1.68647L2 10.5H22L20.7453 1.71716Z" fill="#32383C"/>
<path fill-rule="evenodd" clip-rule="evenodd" d="M1.5 10.5V15.5H22.5V10.5H1.5ZM1 9C0.447715 9 0 9.44772 0 10V16C0 16.5523 0.447716 17 1 17H23C23.5523 17 24 16.5523 24 16V10C24 9.44772 23.5523 9 23 9H1Z" fill="#32383C"/>
<path fill-rule="evenodd" clip-rule="evenodd" d="M5.5 17.5H3.5V19.5H5.5V17.5ZM2 16V20C2 20.5523 2.44772 21 3 21H6C6.55228 21 7 20.5523 7 20V16H2Z" fill="#32383C"/>
<path fill-rule="evenodd" clip-rule="evenodd" d="M20.5 17.5H18.5V19.5H20.5V17.5ZM17 16V20C17 20.5523 17.4477 21 18 21H21C21.5523 21 22 20.5523 22 20V16H17Z" fill="#32383C"/>
<path d="M7 13C7 13.5523 6.55228 14 6 14C5.44772 14 5 13.5523 5 13C5 12.4477 5.44772 12 6 12C6.55228 12 7 12.4477 7 13Z" fill="#32383C"/>
<path d="M18 13C18 13.5523 17.5523 14 17 14C16.4477 14 16 13.5523 16 13C16 12.4477 16.4477 12 17 12C17.5523 12 18 12.4477 18 13Z" fill="#32383C"/>
</svg>
