<?xml version="1.0" encoding="UTF-8"?>
<svg width="32px" height="32px" viewBox="0 0 32 32" version="1.1" 
    xmlns="http://www.w3.org/2000/svg" 
    xmlns:xlink="http://www.w3.org/1999/xlink">
    <!-- Generator: Sketch 53.2 (72643) - https://sketchapp.com -->
    <title>icon/primary/inactive/document</title>
    <desc>Created with Sketch.</desc>
    <defs>
        <path d="M12.1276297,24.1090558 C11.9427059,23.9419679 11.8265009,23.7002528 11.8265009,23.4313965 L11.8265009,8 C11.8265009,7.49574001 12.2352844,7.08695652 12.7395444,7.08695652 L25.4484067,7.08695652 C25.4557269,7.08695652 25.463027,7.08704267 25.470306,7.087214 C25.477269,7.08705012 25.4842514,7.08696417 25.4912522,7.086957 C25.995512,7.08644047 26.404714,7.49480501 26.4052305,7.99906473 L26.4208555,15.984375 C26.421372,16.4886347 26.0130075,16.8978367 25.5087478,16.8983533 C25.004488,16.8988698 24.595286,16.4905053 24.5947695,15.9862455 L24.5809292,8.91304348 L13.6525879,8.91304348 L13.6525879,22.5869565 L21.0024414,22.5869565 C21.5067014,22.5869565 21.9154849,22.99574 21.9154849,23.5 C21.9154849,24.00426 21.5067014,24.4130435 21.0024414,24.4130435 L12.8078613,24.4130435 C12.5376222,24.4130435 12.294804,24.29564 12.1276297,24.1090558 Z M16,2 C16.5522847,2 17,2.44771525 17,3 C17,3.55228475 16.5522847,4 16,4 C9.372583,4 4,9.372583 4,16 C4,22.627417 9.372583,28 16,28 C22.627417,28 28,22.627417 28,16 C28,15.4477153 28.4477153,15 29,15 C29.5522847,15 30,15.4477153 30,16 C30,23.7319865 23.7319865,30 16,30 C8.2680135,30 2,23.7319865 2,16 C2,8.2680135 8.2680135,2 16,2 Z M21.6259766,11 C22.1302366,11 22.53902,11.4087835 22.53902,11.9130435 C22.53902,12.4173035 22.1302366,12.826087 21.6259766,12.826087 L16.9130435,12.826087 C16.4087835,12.826087 16,12.4173035 16,11.9130435 C16,11.4087835 16.4087835,11 16.9130435,11 L21.6259766,11 Z M20.9429932,15 C21.4472532,15 21.8560366,15.4087835 21.8560366,15.9130435 C21.8560366,16.4173035 21.4472532,16.826087 20.9429932,16.826087 L16.9130435,16.826087 C16.4087835,16.826087 16,16.4173035 16,15.9130435 C16,15.4087835 16.4087835,15 16.9130435,15 L20.9429932,15 Z" id="path-1"></path>
    </defs>
    <g id="icon/primary/inactive/document" stroke="none" stroke-width="1" fill="none" fill-rule="evenodd">
        <rect fill="#FFFFFF" opacity="0" x="0" y="0" width="32" height="32"></rect>
        <g id="color/moon-900-copy">
            <mask id="mask-2" fill="white">
                <use xlink:href="#path-1"></use>
            </mask>
            <use id="Mask" fill="#FFFFFF" fill-rule="nonzero" xlink:href="#path-1"></use>
            <g id="color/moon-900" mask="url(#mask-2)" fill="#32383C">
                <rect id="Rectangle" x="0" y="0" width="32" height="32"></rect>
            </g>
        </g>
    </g>
</svg>