<svg width="32" height="32" viewBox="0 0 32 32" fill="none" xmlns="http://www.w3.org/2000/svg">
<path d="M16 16.6667L16.2105 15.697L5.57895 11.8182L16 7.93939L26.4211 11.8182L15.7895 15.697L16 16.6667L16.2105 15.697L16 16.6667L16.2105 17.6364L29.3684 12.7879C29.6842 12.6667 30 12.303 30 11.8182C30 11.4545 29.7895 10.9697 29.3684 10.8485L16.2105 6C16.1053 6 15.8947 6 15.7895 6L2.63158 10.8485C2.21053 10.9697 2 11.4545 2 11.8182C2 12.1818 2.21053 12.6667 2.63158 12.7879L15.7895 17.6364C16 17.7576 16.1053 17.7576 16.3158 17.6364L16 16.6667Z" fill="#32383C"/>
<path d="M23.0527 14.3636V21.5151H23.8948L23.1579 21.1515L23.579 21.3939L23.1579 21.1515L23.579 21.3939L23.1579 21.1515C23.1579 21.1515 23.0527 21.3939 22.8421 21.6363C22.2105 22.4848 20.5263 24.303 16.3158 24.303C13.4737 24.303 11.579 23.4545 10.4211 22.606C9.7895 22.2424 9.47371 21.7575 9.15792 21.5151C9.05266 21.3939 8.94739 21.2727 8.84213 21.1515L8.73687 21.0303L8.52634 21.2727L8.84213 21.0303L8.6316 21.2727L8.94739 21.0303L8.21055 21.5151H9.05266V14.1212C9.05266 13.6363 8.6316 13.1515 8.21055 13.1515C7.68424 13.1515 7.26318 13.6363 7.26318 14.1212V21.5151C7.26318 21.7575 7.26318 21.8788 7.36845 22C7.36845 22.1212 8.00003 23.0909 9.47371 24.0606C10.8421 25.0303 13.1579 26 16.3158 26C19.4737 26 21.579 25.0303 22.8421 24.0606C24.1053 23.0909 24.6316 22 24.6316 21.8788C24.7369 21.7575 24.7369 21.6363 24.7369 21.5151V14.3636C24.7369 13.8788 24.3158 13.3939 23.8948 13.3939C23.4737 13.3939 23.0527 13.8788 23.0527 14.3636Z" fill="#32383C"/>
</svg>
